<svg width="38" height="43" viewBox="0 0 38 43" fill="none" xmlns="http://www.w3.org/2000/svg">
<mask id="path-1-outside-1" maskUnits="userSpaceOnUse" x="0" y="-0.178833" width="38" height="43" fill="black">
<rect fill="white" y="-0.178833" width="38" height="43"/>
<path d="M37.3431 31.7801C37.3431 27.6081 34.6154 24.066 30.8512 22.8303C32.3258 21.8692 33.305 20.2075 33.305 18.3197C33.305 15.351 30.8895 12.9355 27.9208 12.9355C27.6362 12.9355 27.3589 12.9645 27.0863 13.0069C27.124 12.8979 27.1718 12.7915 27.2048 12.6811L28.5939 12.3541V8.16652L27.2061 7.83943C27.0432 7.29294 26.8245 6.76529 26.5519 6.26254L27.3023 5.04909L24.3659 2.11202L23.1525 2.86311C22.6504 2.59189 22.1228 2.37248 21.5749 2.20894L21.2485 0.821167H17.0946L16.7682 2.20894C16.221 2.37248 15.6927 2.59121 15.1906 2.86311L13.9772 2.11202L11.0408 5.04909L11.7912 6.26254C11.5193 6.76529 11.3006 7.29294 11.137 7.83943L9.74927 8.16719V12.3554L11.1377 12.6825C11.1707 12.7922 11.2185 12.8985 11.2562 13.0076C10.9843 12.9645 10.707 12.9355 10.4223 12.9355C7.4536 12.9355 5.03813 15.351 5.03813 18.3197C5.03813 20.2075 6.01737 21.8692 7.49196 22.8303C3.72775 24.066 1 27.6081 1 31.7801V34.4722H11.45C10.3812 36 9.74927 37.8548 9.74927 39.8564V42.5485H28.5939V39.8564C28.5939 37.8548 27.9619 36 26.8931 34.4722H37.3431V31.7801ZM29.2669 24.3769C29.2669 25.4712 28.6504 26.396 27.9208 26.396C27.1913 26.396 26.5748 25.4712 26.5748 24.3769C26.5748 24.1858 26.6017 23.9967 26.6421 23.8089C27.0634 23.7416 27.4901 23.7039 27.9208 23.7039C28.3576 23.7039 28.7837 23.7483 29.2016 23.8156C29.2406 24.0014 29.2669 24.1885 29.2669 24.3769ZM19.1716 30.4341C16.9445 30.4341 15.1334 28.623 15.1334 26.396C15.1334 24.1689 16.9445 22.3578 19.1716 22.3578C21.3986 22.3578 23.2097 24.1689 23.2097 26.396C23.2097 28.623 21.3986 30.4341 19.1716 30.4341ZM13.9328 24.5102C13.99 24.5378 14.0479 24.5633 14.1044 24.5923C13.9032 25.1576 13.7874 25.7627 13.7874 26.396C13.7874 26.6645 13.8136 26.927 13.852 27.1854L12.9555 29.1581L11.3241 27.1195L13.9328 24.5102ZM19.1716 21.0118C17.3154 21.0118 15.6759 21.9561 14.7074 23.3896C14.2713 23.1668 13.8184 22.9817 13.354 22.8296C14.8279 21.8679 15.8065 20.2069 15.8065 18.3197C15.8065 18.1945 15.7964 18.072 15.7876 17.9496C16.1066 18.0902 16.4337 18.212 16.7682 18.3123L17.0946 19.7001H21.2485L21.5749 18.3123C21.9094 18.212 22.2365 18.0902 22.5555 17.9496C22.5468 18.072 22.5367 18.1945 22.5367 18.3197C22.5367 20.2075 23.5152 21.8679 24.9892 22.8296C24.5255 22.9811 24.0725 23.1675 23.6364 23.3903C22.6679 21.9567 21.0278 21.0118 19.1716 21.0118ZM31.959 18.3197C31.959 20.5467 30.1479 22.3578 27.9208 22.3578C25.6938 22.3578 23.8827 20.5467 23.8827 18.3197C23.8827 16.0927 25.6938 14.2816 27.9208 14.2816C30.1479 14.2816 31.959 16.0927 31.959 18.3197ZM12.3357 11.9583L12.2374 11.5579L11.0953 11.2887V9.23191L12.2368 8.96338L12.335 8.56293C12.5046 7.87106 12.7779 7.20948 13.1494 6.59838L13.3627 6.24639L12.7449 5.2483L14.1751 3.81813L15.1732 4.43596L15.5251 4.22194C16.1349 3.85178 16.7965 3.57719 17.4904 3.40759L17.8908 3.30933L18.1607 2.16721H20.1824L20.451 3.30865L20.8514 3.40691C21.5453 3.57719 22.2069 3.85111 22.8167 4.22127L23.1686 4.43529L24.1667 3.81746L25.5969 5.24763L24.9797 6.24639L25.1931 6.59838C25.5646 7.20948 25.8378 7.87106 26.0074 8.56293L26.1057 8.96338L27.2478 9.23259V11.2893L26.1064 11.5579L26.0081 11.9583C25.8722 12.5149 25.6514 13.0574 25.3721 13.579C24.304 14.1557 23.452 15.0832 22.9708 16.2058L22.8173 16.2986C22.2076 16.6688 21.546 16.9434 20.8521 17.113L20.4517 17.2113L20.1831 18.3527H18.1614L17.8928 17.2106L17.4924 17.1123C16.7998 16.9427 16.1383 16.6688 15.5272 16.298L15.3737 16.2051C14.8925 15.0818 14.0405 14.1544 12.9724 13.5776C12.6924 13.0574 12.4716 12.5149 12.3357 11.9583ZM6.38417 18.3197C6.38417 16.0927 8.19527 14.2816 10.4223 14.2816C12.6493 14.2816 14.4604 16.0927 14.4604 18.3197C14.4604 20.5467 12.6493 22.3578 10.4223 22.3578C8.19527 22.3578 6.38417 20.5467 6.38417 18.3197ZM12.5497 23.9899L10.4223 26.1173L8.30093 23.996C8.97799 23.8109 9.68736 23.7039 10.4223 23.7039C11.1458 23.7039 11.8605 23.8021 12.5497 23.9899ZM9.52045 27.1188L7.88904 29.1574L6.00997 25.0237C6.29937 24.8339 6.60357 24.667 6.9172 24.5149L9.52045 27.1188ZM2.34604 31.7801C2.34604 29.4528 3.34144 27.3584 4.92237 25.8831L7.57138 31.7108L10.4223 28.1465L13.2732 31.7108L14.4867 29.0409C14.914 29.7947 15.5171 30.4354 16.2406 30.9072C14.8541 31.3622 13.6097 32.1288 12.5894 33.1269H5.71115V29.0887H4.36511V33.1269H2.34604V31.7801ZM19.1716 31.7801C20.3413 31.7801 21.4504 32.0352 22.4552 32.4848L19.1716 40.1626L15.8879 32.4841C16.8927 32.0352 18.0019 31.7801 19.1716 31.7801ZM11.0953 39.8564C11.0953 37.0553 12.5295 34.5846 14.7014 33.1356L18.1513 41.2024H14.4604V37.1643H13.1144V41.2024H11.0953V39.8564ZM27.2478 41.2024H25.2288V37.1643H23.8827V41.2024H20.1919L23.6418 33.1356C25.8136 34.5846 27.2478 37.0553 27.2478 39.8564V41.2024ZM35.9971 33.1262H33.978V29.0881H32.632V33.1262H25.753C24.7327 32.1281 23.4877 31.3615 22.1019 30.9066C23.5765 29.9455 24.5557 28.2838 24.5557 26.396C24.5557 25.7633 24.44 25.1583 24.2387 24.5936C24.5652 24.426 24.9023 24.2807 25.2476 24.1602C25.2436 24.2322 25.2288 24.3042 25.2288 24.3769C25.2288 26.2324 26.4362 27.742 27.9208 27.742C29.4055 27.742 30.6129 26.2324 30.6129 24.3769C30.6129 24.3069 30.5988 24.2383 30.5948 24.1683C33.7357 25.2754 35.9971 28.265 35.9971 31.7801V33.1262Z"/>
</mask>
<path d="M37.3431 31.7801C37.3431 27.6081 34.6154 24.066 30.8512 22.8303C32.3258 21.8692 33.305 20.2075 33.305 18.3197C33.305 15.351 30.8895 12.9355 27.9208 12.9355C27.6362 12.9355 27.3589 12.9645 27.0863 13.0069C27.124 12.8979 27.1718 12.7915 27.2048 12.6811L28.5939 12.3541V8.16652L27.2061 7.83943C27.0432 7.29294 26.8245 6.76529 26.5519 6.26254L27.3023 5.04909L24.3659 2.11202L23.1525 2.86311C22.6504 2.59189 22.1228 2.37248 21.5749 2.20894L21.2485 0.821167H17.0946L16.7682 2.20894C16.221 2.37248 15.6927 2.59121 15.1906 2.86311L13.9772 2.11202L11.0408 5.04909L11.7912 6.26254C11.5193 6.76529 11.3006 7.29294 11.137 7.83943L9.74927 8.16719V12.3554L11.1377 12.6825C11.1707 12.7922 11.2185 12.8985 11.2562 13.0076C10.9843 12.9645 10.707 12.9355 10.4223 12.9355C7.4536 12.9355 5.03813 15.351 5.03813 18.3197C5.03813 20.2075 6.01737 21.8692 7.49196 22.8303C3.72775 24.066 1 27.6081 1 31.7801V34.4722H11.45C10.3812 36 9.74927 37.8548 9.74927 39.8564V42.5485H28.5939V39.8564C28.5939 37.8548 27.9619 36 26.8931 34.4722H37.3431V31.7801ZM29.2669 24.3769C29.2669 25.4712 28.6504 26.396 27.9208 26.396C27.1913 26.396 26.5748 25.4712 26.5748 24.3769C26.5748 24.1858 26.6017 23.9967 26.6421 23.8089C27.0634 23.7416 27.4901 23.7039 27.9208 23.7039C28.3576 23.7039 28.7837 23.7483 29.2016 23.8156C29.2406 24.0014 29.2669 24.1885 29.2669 24.3769ZM19.1716 30.4341C16.9445 30.4341 15.1334 28.623 15.1334 26.396C15.1334 24.1689 16.9445 22.3578 19.1716 22.3578C21.3986 22.3578 23.2097 24.1689 23.2097 26.396C23.2097 28.623 21.3986 30.4341 19.1716 30.4341ZM13.9328 24.5102C13.99 24.5378 14.0479 24.5633 14.1044 24.5923C13.9032 25.1576 13.7874 25.7627 13.7874 26.396C13.7874 26.6645 13.8136 26.927 13.852 27.1854L12.9555 29.1581L11.3241 27.1195L13.9328 24.5102ZM19.1716 21.0118C17.3154 21.0118 15.6759 21.9561 14.7074 23.3896C14.2713 23.1668 13.8184 22.9817 13.354 22.8296C14.8279 21.8679 15.8065 20.2069 15.8065 18.3197C15.8065 18.1945 15.7964 18.072 15.7876 17.9496C16.1066 18.0902 16.4337 18.212 16.7682 18.3123L17.0946 19.7001H21.2485L21.5749 18.3123C21.9094 18.212 22.2365 18.0902 22.5555 17.9496C22.5468 18.072 22.5367 18.1945 22.5367 18.3197C22.5367 20.2075 23.5152 21.8679 24.9892 22.8296C24.5255 22.9811 24.0725 23.1675 23.6364 23.3903C22.6679 21.9567 21.0278 21.0118 19.1716 21.0118ZM31.959 18.3197C31.959 20.5467 30.1479 22.3578 27.9208 22.3578C25.6938 22.3578 23.8827 20.5467 23.8827 18.3197C23.8827 16.0927 25.6938 14.2816 27.9208 14.2816C30.1479 14.2816 31.959 16.0927 31.959 18.3197ZM12.3357 11.9583L12.2374 11.5579L11.0953 11.2887V9.23191L12.2368 8.96338L12.335 8.56293C12.5046 7.87106 12.7779 7.20948 13.1494 6.59838L13.3627 6.24639L12.7449 5.2483L14.1751 3.81813L15.1732 4.43596L15.5251 4.22194C16.1349 3.85178 16.7965 3.57719 17.4904 3.40759L17.8908 3.30933L18.1607 2.16721H20.1824L20.451 3.30865L20.8514 3.40691C21.5453 3.57719 22.2069 3.85111 22.8167 4.22127L23.1686 4.43529L24.1667 3.81746L25.5969 5.24763L24.9797 6.24639L25.1931 6.59838C25.5646 7.20948 25.8378 7.87106 26.0074 8.56293L26.1057 8.96338L27.2478 9.23259V11.2893L26.1064 11.5579L26.0081 11.9583C25.8722 12.5149 25.6514 13.0574 25.3721 13.579C24.304 14.1557 23.452 15.0832 22.9708 16.2058L22.8173 16.2986C22.2076 16.6688 21.546 16.9434 20.8521 17.113L20.4517 17.2113L20.1831 18.3527H18.1614L17.8928 17.2106L17.4924 17.1123C16.7998 16.9427 16.1383 16.6688 15.5272 16.298L15.3737 16.2051C14.8925 15.0818 14.0405 14.1544 12.9724 13.5776C12.6924 13.0574 12.4716 12.5149 12.3357 11.9583ZM6.38417 18.3197C6.38417 16.0927 8.19527 14.2816 10.4223 14.2816C12.6493 14.2816 14.4604 16.0927 14.4604 18.3197C14.4604 20.5467 12.6493 22.3578 10.4223 22.3578C8.19527 22.3578 6.38417 20.5467 6.38417 18.3197ZM12.5497 23.9899L10.4223 26.1173L8.30093 23.996C8.97799 23.8109 9.68736 23.7039 10.4223 23.7039C11.1458 23.7039 11.8605 23.8021 12.5497 23.9899ZM9.52045 27.1188L7.88904 29.1574L6.00997 25.0237C6.29937 24.8339 6.60357 24.667 6.9172 24.5149L9.52045 27.1188ZM2.34604 31.7801C2.34604 29.4528 3.34144 27.3584 4.92237 25.8831L7.57138 31.7108L10.4223 28.1465L13.2732 31.7108L14.4867 29.0409C14.914 29.7947 15.5171 30.4354 16.2406 30.9072C14.8541 31.3622 13.6097 32.1288 12.5894 33.1269H5.71115V29.0887H4.36511V33.1269H2.34604V31.7801ZM19.1716 31.7801C20.3413 31.7801 21.4504 32.0352 22.4552 32.4848L19.1716 40.1626L15.8879 32.4841C16.8927 32.0352 18.0019 31.7801 19.1716 31.7801ZM11.0953 39.8564C11.0953 37.0553 12.5295 34.5846 14.7014 33.1356L18.1513 41.2024H14.4604V37.1643H13.1144V41.2024H11.0953V39.8564ZM27.2478 41.2024H25.2288V37.1643H23.8827V41.2024H20.1919L23.6418 33.1356C25.8136 34.5846 27.2478 37.0553 27.2478 39.8564V41.2024ZM35.9971 33.1262H33.978V29.0881H32.632V33.1262H25.753C24.7327 32.1281 23.4877 31.3615 22.1019 30.9066C23.5765 29.9455 24.5557 28.2838 24.5557 26.396C24.5557 25.7633 24.44 25.1583 24.2387 24.5936C24.5652 24.426 24.9023 24.2807 25.2476 24.1602C25.2436 24.2322 25.2288 24.3042 25.2288 24.3769C25.2288 26.2324 26.4362 27.742 27.9208 27.742C29.4055 27.742 30.6129 26.2324 30.6129 24.3769C30.6129 24.3069 30.5988 24.2383 30.5948 24.1683C33.7357 25.2754 35.9971 28.265 35.9971 31.7801V33.1262Z" fill="#006771"/>
<path d="M37.3431 31.7801C37.3431 27.6081 34.6154 24.066 30.8512 22.8303C32.3258 21.8692 33.305 20.2075 33.305 18.3197C33.305 15.351 30.8895 12.9355 27.9208 12.9355C27.6362 12.9355 27.3589 12.9645 27.0863 13.0069C27.124 12.8979 27.1718 12.7915 27.2048 12.6811L28.5939 12.3541V8.16652L27.2061 7.83943C27.0432 7.29294 26.8245 6.76529 26.5519 6.26254L27.3023 5.04909L24.3659 2.11202L23.1525 2.86311C22.6504 2.59189 22.1228 2.37248 21.5749 2.20894L21.2485 0.821167H17.0946L16.7682 2.20894C16.221 2.37248 15.6927 2.59121 15.1906 2.86311L13.9772 2.11202L11.0408 5.04909L11.7912 6.26254C11.5193 6.76529 11.3006 7.29294 11.137 7.83943L9.74927 8.16719V12.3554L11.1377 12.6825C11.1707 12.7922 11.2185 12.8985 11.2562 13.0076C10.9843 12.9645 10.707 12.9355 10.4223 12.9355C7.4536 12.9355 5.03813 15.351 5.03813 18.3197C5.03813 20.2075 6.01737 21.8692 7.49196 22.8303C3.72775 24.066 1 27.6081 1 31.7801V34.4722H11.45C10.3812 36 9.74927 37.8548 9.74927 39.8564V42.5485H28.5939V39.8564C28.5939 37.8548 27.9619 36 26.8931 34.4722H37.3431V31.7801ZM29.2669 24.3769C29.2669 25.4712 28.6504 26.396 27.9208 26.396C27.1913 26.396 26.5748 25.4712 26.5748 24.3769C26.5748 24.1858 26.6017 23.9967 26.6421 23.8089C27.0634 23.7416 27.4901 23.7039 27.9208 23.7039C28.3576 23.7039 28.7837 23.7483 29.2016 23.8156C29.2406 24.0014 29.2669 24.1885 29.2669 24.3769ZM19.1716 30.4341C16.9445 30.4341 15.1334 28.623 15.1334 26.396C15.1334 24.1689 16.9445 22.3578 19.1716 22.3578C21.3986 22.3578 23.2097 24.1689 23.2097 26.396C23.2097 28.623 21.3986 30.4341 19.1716 30.4341ZM13.9328 24.5102C13.99 24.5378 14.0479 24.5633 14.1044 24.5923C13.9032 25.1576 13.7874 25.7627 13.7874 26.396C13.7874 26.6645 13.8136 26.927 13.852 27.1854L12.9555 29.1581L11.3241 27.1195L13.9328 24.5102ZM19.1716 21.0118C17.3154 21.0118 15.6759 21.9561 14.7074 23.3896C14.2713 23.1668 13.8184 22.9817 13.354 22.8296C14.8279 21.8679 15.8065 20.2069 15.8065 18.3197C15.8065 18.1945 15.7964 18.072 15.7876 17.9496C16.1066 18.0902 16.4337 18.212 16.7682 18.3123L17.0946 19.7001H21.2485L21.5749 18.3123C21.9094 18.212 22.2365 18.0902 22.5555 17.9496C22.5468 18.072 22.5367 18.1945 22.5367 18.3197C22.5367 20.2075 23.5152 21.8679 24.9892 22.8296C24.5255 22.9811 24.0725 23.1675 23.6364 23.3903C22.6679 21.9567 21.0278 21.0118 19.1716 21.0118ZM31.959 18.3197C31.959 20.5467 30.1479 22.3578 27.9208 22.3578C25.6938 22.3578 23.8827 20.5467 23.8827 18.3197C23.8827 16.0927 25.6938 14.2816 27.9208 14.2816C30.1479 14.2816 31.959 16.0927 31.959 18.3197ZM12.3357 11.9583L12.2374 11.5579L11.0953 11.2887V9.23191L12.2368 8.96338L12.335 8.56293C12.5046 7.87106 12.7779 7.20948 13.1494 6.59838L13.3627 6.24639L12.7449 5.2483L14.1751 3.81813L15.1732 4.43596L15.5251 4.22194C16.1349 3.85178 16.7965 3.57719 17.4904 3.40759L17.8908 3.30933L18.1607 2.16721H20.1824L20.451 3.30865L20.8514 3.40691C21.5453 3.57719 22.2069 3.85111 22.8167 4.22127L23.1686 4.43529L24.1667 3.81746L25.5969 5.24763L24.9797 6.24639L25.1931 6.59838C25.5646 7.20948 25.8378 7.87106 26.0074 8.56293L26.1057 8.96338L27.2478 9.23259V11.2893L26.1064 11.5579L26.0081 11.9583C25.8722 12.5149 25.6514 13.0574 25.3721 13.579C24.304 14.1557 23.452 15.0832 22.9708 16.2058L22.8173 16.2986C22.2076 16.6688 21.546 16.9434 20.8521 17.113L20.4517 17.2113L20.1831 18.3527H18.1614L17.8928 17.2106L17.4924 17.1123C16.7998 16.9427 16.1383 16.6688 15.5272 16.298L15.3737 16.2051C14.8925 15.0818 14.0405 14.1544 12.9724 13.5776C12.6924 13.0574 12.4716 12.5149 12.3357 11.9583ZM6.38417 18.3197C6.38417 16.0927 8.19527 14.2816 10.4223 14.2816C12.6493 14.2816 14.4604 16.0927 14.4604 18.3197C14.4604 20.5467 12.6493 22.3578 10.4223 22.3578C8.19527 22.3578 6.38417 20.5467 6.38417 18.3197ZM12.5497 23.9899L10.4223 26.1173L8.30093 23.996C8.97799 23.8109 9.68736 23.7039 10.4223 23.7039C11.1458 23.7039 11.8605 23.8021 12.5497 23.9899ZM9.52045 27.1188L7.88904 29.1574L6.00997 25.0237C6.29937 24.8339 6.60357 24.667 6.9172 24.5149L9.52045 27.1188ZM2.34604 31.7801C2.34604 29.4528 3.34144 27.3584 4.92237 25.8831L7.57138 31.7108L10.4223 28.1465L13.2732 31.7108L14.4867 29.0409C14.914 29.7947 15.5171 30.4354 16.2406 30.9072C14.8541 31.3622 13.6097 32.1288 12.5894 33.1269H5.71115V29.0887H4.36511V33.1269H2.34604V31.7801ZM19.1716 31.7801C20.3413 31.7801 21.4504 32.0352 22.4552 32.4848L19.1716 40.1626L15.8879 32.4841C16.8927 32.0352 18.0019 31.7801 19.1716 31.7801ZM11.0953 39.8564C11.0953 37.0553 12.5295 34.5846 14.7014 33.1356L18.1513 41.2024H14.4604V37.1643H13.1144V41.2024H11.0953V39.8564ZM27.2478 41.2024H25.2288V37.1643H23.8827V41.2024H20.1919L23.6418 33.1356C25.8136 34.5846 27.2478 37.0553 27.2478 39.8564V41.2024ZM35.9971 33.1262H33.978V29.0881H32.632V33.1262H25.753C24.7327 32.1281 23.4877 31.3615 22.1019 30.9066C23.5765 29.9455 24.5557 28.2838 24.5557 26.396C24.5557 25.7633 24.44 25.1583 24.2387 24.5936C24.5652 24.426 24.9023 24.2807 25.2476 24.1602C25.2436 24.2322 25.2288 24.3042 25.2288 24.3769C25.2288 26.2324 26.4362 27.742 27.9208 27.742C29.4055 27.742 30.6129 26.2324 30.6129 24.3769C30.6129 24.3069 30.5988 24.2383 30.5948 24.1683C33.7357 25.2754 35.9971 28.265 35.9971 31.7801V33.1262Z" stroke="#006771" stroke-width="0.4" mask="url(#path-1-outside-1)"/>
</svg>
