<svg width="41" height="37" viewBox="0 0 41 37" fill="none" xmlns="http://www.w3.org/2000/svg">
<path d="M37.0299 1H3.84746C2.27733 1 1 2.27733 1 3.84746V27.7661C1 29.3363 2.27733 30.6136 3.84746 30.6136H15.4315L14.746 33.0126C14.4708 33.9759 13.3918 34.7899 12.3898 34.7899H8.66916C8.35465 34.7899 8.09967 35.0448 8.09967 35.3594C8.09967 35.6739 8.35465 35.9289 8.66916 35.9289H32.2082C32.5227 35.9289 32.7777 35.6739 32.7777 35.3594C32.7777 35.0448 32.5227 34.7899 32.2082 34.7899H28.4875C27.4856 34.7899 26.4066 33.9759 26.1313 33.0126L25.4459 30.6136H37.0299C38.6 30.6136 39.8773 29.3363 39.8773 27.7661V3.84746C39.8773 2.27733 38.6 1 37.0299 1ZM25.0361 33.3255C25.1924 33.8725 25.503 34.3752 25.9103 34.7899H14.9671C15.3743 34.3752 15.6849 33.8725 15.8412 33.3255L16.616 30.6136H24.2612L25.0361 33.3255ZM38.7383 27.7661C38.7383 28.7082 37.972 29.4746 37.0299 29.4746H3.84746C2.90537 29.4746 2.13898 28.7082 2.13898 27.7661V3.84746C2.13898 2.90537 2.90537 2.13898 3.84746 2.13898H37.0299C37.972 2.13898 38.7383 2.90537 38.7383 3.84746V27.7661Z" fill="#006771" stroke="#006771"/>
<path d="M36.3244 27.6566C36.6389 27.6566 36.8939 27.4016 36.8939 27.0871C36.8939 26.7725 36.6389 26.5176 36.3244 26.5176C36.0099 26.5176 35.7549 26.7725 35.7549 27.0871C35.7549 27.4016 36.0099 27.6566 36.3244 27.6566Z" fill="#006771"/>
<path d="M34.0464 27.6566C34.3609 27.6566 34.6159 27.4016 34.6159 27.0871C34.6159 26.7725 34.3609 26.5176 34.0464 26.5176C33.7319 26.5176 33.4769 26.7725 33.4769 27.0871C33.4769 27.4016 33.7319 27.6566 34.0464 27.6566Z" fill="#006771"/>
</svg>
