<svg width="38" height="38" viewBox="0 0 38 38" fill="none" xmlns="http://www.w3.org/2000/svg">
<path d="M16.1272 10.2971C16.1272 11.8745 17.3839 13.1578 18.9285 13.1578C20.4732 13.1578 21.7299 11.8745 21.7299 10.2971C21.7299 8.71971 20.4732 7.4364 18.9285 7.4364C17.3839 7.4364 16.1272 8.71971 16.1272 10.2971ZM20.3292 10.2971C20.3292 11.0858 19.7009 11.7275 18.9285 11.7275C18.1562 11.7275 17.5279 11.0858 17.5279 10.2971C17.5279 9.50841 18.1562 8.86675 18.9285 8.86675C19.7009 8.86675 20.3292 9.50841 20.3292 10.2971Z" fill="#006771" stroke="#006771" stroke-width="0.5"/>
<path d="M36.5214 11.8322L19.2931 1.10454C19.0693 0.965153 18.7879 0.965153 18.564 1.10454L1.33574 11.8322C1.12718 11.962 1 12.1935 1 12.4428V36.902C1 37.297 1.31361 37.6171 1.70033 37.6171H36.1568C36.5435 37.6171 36.8571 37.297 36.8571 36.902V12.4428C36.8571 12.1935 36.7299 11.962 36.5214 11.8322ZM13.606 36.1868H6.60267V29.035H9.40401V30.4653C9.40401 30.8603 9.71762 31.1805 10.1043 31.1805C10.4911 31.1805 10.8047 30.8603 10.8047 30.4653V29.035H13.606V36.1868ZM6.60267 27.6046V22.5984H11.505V27.6046H6.60267ZM22.01 36.1868H15.0067V29.035H17.808V30.4653C17.808 30.8603 18.1216 31.1805 18.5084 31.1805C18.8951 31.1805 19.2087 30.8603 19.2087 30.4653V29.035H22.01V36.1868ZM35.4564 36.1868H32.6551V17.163C32.6551 16.768 32.3415 16.4478 31.9548 16.4478H22.0801C21.6933 16.4478 21.3797 16.768 21.3797 17.163C21.3797 17.558 21.6933 17.8782 22.0801 17.8782H31.2544V36.1868H23.4107V28.3198C23.4107 27.9248 23.0971 27.6046 22.7104 27.6046C21.2656 27.6046 14.1359 27.6046 12.9057 27.6046V21.8832C12.9057 21.4882 12.5921 21.168 12.2053 21.168H6.60267V17.8782H15.777C16.1638 17.8782 16.4774 17.558 16.4774 17.163C16.4774 16.768 16.1638 16.4478 15.777 16.4478H5.90234C5.51561 16.4478 5.202 16.768 5.202 17.163V36.1868H2.40067V12.8444L18.9286 2.55278L35.4564 12.8443V36.1868Z" fill="#006771" stroke="#006771" stroke-width="0.5"/>
</svg>
