<svg width="36" height="36" viewBox="0 0 36 36" fill="none" xmlns="http://www.w3.org/2000/svg">
<path d="M17.6807 0C17.6792 0 17.6784 0 17.6769 0C6.449 0 -1.93917 10.3399 0.390589 21.3531C0.509734 21.9161 1.06273 22.2763 1.6256 22.1568C2.1886 22.0377 2.5484 21.4847 2.42926 20.9216C0.373846 11.2056 7.7721 2.08417 17.6769 2.08417C17.678 2.08417 17.6792 2.08417 17.6802 2.08417C26.2995 2.08598 33.2759 9.06456 33.2777 17.6866C33.2795 26.3036 26.3122 33.2818 17.6908 33.2818C17.6897 33.2818 17.6885 33.2818 17.6875 33.2818C14.4483 33.2811 11.36 32.2988 8.76118 30.4764L11.1236 30.4742C11.699 30.4737 12.1651 30.0067 12.1645 29.4311C12.1639 28.8559 11.6976 28.39 11.1226 28.39C11.1223 28.39 11.1219 28.39 11.1216 28.39L5.93247 28.395C5.23046 28.3955 4.69316 29.1034 4.94367 29.8004L5.93289 34.7326C6.03224 35.2277 6.46706 35.5699 6.95337 35.5699C7.61329 35.5699 8.10515 34.9663 7.97608 34.3226L7.54417 32.1692C10.4951 34.2459 14.0052 35.3652 17.6871 35.366C17.6885 35.366 17.6894 35.366 17.6908 35.366C27.4588 35.3656 35.3634 27.4605 35.3615 17.6862C35.3595 7.91458 27.4536 0.00194523 17.6807 0Z" fill="#006771"/>
<path d="M16.8512 20.554H13.5942V20.4419C13.5941 19.3088 17.4354 18.4248 17.4354 15.7228C17.4354 14.0543 15.9809 13.1454 14.5389 13.1454C13.1218 13.1454 11.7295 14.017 11.7295 15.5361C11.7295 16.3205 12.1024 16.5446 12.5997 16.5446C13.2337 16.5446 13.6191 16.1959 13.6191 15.8348C13.6191 15.15 14.0542 14.901 14.5514 14.901C15.2476 14.901 15.4962 15.3866 15.4962 15.7851C15.4962 17.3665 11.5803 18.4871 11.5803 20.4419V21.6497C11.5803 22.0108 12.0775 22.2474 12.4257 22.2474H16.8512C17.162 22.2474 17.4355 21.8365 17.4355 21.3882C17.4355 20.94 17.162 20.554 16.8512 20.554Z" fill="#006771"/>
<path d="M23.4767 18.5369H22.9422V17.6653C22.9422 17.2544 22.4574 17.0801 21.9725 17.0801C21.4877 17.0801 21.0029 17.2544 21.0029 17.6653V18.5369H19.9338L22.1341 14.1166C22.1715 14.0294 22.1963 13.9547 22.1963 13.88C22.1963 13.4318 21.5624 13.1454 21.2267 13.1454C20.9159 13.1454 20.6051 13.2824 20.4186 13.6434L17.547 19.284C17.4724 19.4209 17.4475 19.5578 17.4475 19.6575C17.4475 20.0933 17.7335 20.3299 18.094 20.3299H21.0029V21.6497C21.0029 22.0482 21.4877 22.2474 21.9725 22.2474C22.4574 22.2474 22.9422 22.0482 22.9422 21.6497V20.3299H23.4767C23.7751 20.3299 24.0734 19.8816 24.0734 19.4334C24.0734 18.9852 23.8745 18.5369 23.4767 18.5369Z" fill="#006771"/>
</svg>
