<svg width="38" height="38" viewBox="0 0 38 38" fill="none" xmlns="http://www.w3.org/2000/svg">
<path d="M24.4563 14.1452L20.6245 17.9769C20.3041 17.8185 19.9436 17.729 19.5626 17.729C19.1815 17.729 18.8212 17.8185 18.5007 17.9769L16.7858 16.262C16.4836 15.9599 15.9939 15.9599 15.6917 16.262C15.3896 16.5641 15.3896 17.054 15.6917 17.3561L17.4066 19.071C17.2481 19.3914 17.1586 19.7519 17.1586 20.1329C17.1586 21.4584 18.237 22.5369 19.5626 22.5369C20.8883 22.5369 21.9666 21.4584 21.9666 20.1329C21.9666 19.7519 21.8771 19.3914 21.7187 19.071L25.438 15.3516L25.5504 15.2392C25.8525 14.9371 25.8525 14.4473 25.5504 14.1452C25.2483 13.8431 24.7586 13.8431 24.4563 14.1452ZM19.5626 20.9897C19.0903 20.9897 18.7059 20.6053 18.7059 20.1329C18.7059 19.6606 19.0903 19.2762 19.5626 19.2762C20.035 19.2762 20.4194 19.6606 20.4194 20.1329C20.4194 20.6053 20.035 20.9897 19.5626 20.9897Z" fill="#006771" stroke="#006771" stroke-width="0.5"/>
<circle cx="18.9448" cy="18.9448" r="17.6948" stroke="#006771" stroke-width="2.5"/>
</svg>
