<svg width="44" height="64" viewBox="0 0 44 64" fill="none" xmlns="http://www.w3.org/2000/svg">
<path d="M22 0.833984C9.86904 0.833984 0 11.2746 0 24.108C0 43.2289 19.8102 61.8988 20.6538 62.6844C21.0384 63.0426 21.5191 63.222 22 63.222C22.4809 63.222 22.9616 63.0428 23.3464 62.6844C24.1896 61.899 44 43.2291 44 24.108C44 11.2746 34.131 0.833984 22 0.833984ZM22 17.5743C25.3697 17.5743 28.1112 20.5052 28.1112 24.108C28.1112 27.7107 25.3697 30.6417 22 30.6417C18.6303 30.6417 15.8888 27.7107 15.8888 24.108C15.8888 20.5052 18.6303 17.5743 22 17.5743Z" fill="#006771"/>
</svg>
