<svg width="13" height="19" viewBox="0 0 13 19" fill="none" xmlns="http://www.w3.org/2000/svg">
<path d="M6.5 0.441406C2.91585 0.441406 0 3.47255 0 7.19837C0 12.7496 5.85301 18.1699 6.10226 18.398C6.21589 18.502 6.35791 18.554 6.5 18.554C6.64209 18.554 6.78411 18.502 6.8978 18.398C7.14693 18.17 13 12.7497 13 7.19837C13 3.47255 10.0841 0.441406 6.5 0.441406ZM6.5 5.30149C7.4956 5.30149 8.30557 6.15242 8.30557 7.19837C8.30557 8.24433 7.4956 9.09525 6.5 9.09525C5.5044 9.09525 4.69443 8.24433 4.69443 7.19837C4.69443 6.15242 5.5044 5.30149 6.5 5.30149Z" fill="#006771"/>
</svg>
