<svg width="117" height="116" viewBox="0 0 117 116" fill="none" xmlns="http://www.w3.org/2000/svg">
<g clip-path="url(#clip0)">
<path d="M99.8647 99.0117C122.71 76.3615 122.71 39.6383 99.8645 16.9881C77.019 -5.66217 39.9791 -5.66226 17.1337 16.9879C-5.7118 39.638 -5.71171 76.3612 17.1338 99.0115C39.9794 121.662 77.0193 121.662 99.8647 99.0117Z" fill="#006771"/>
<path fill-rule="evenodd" clip-rule="evenodd" d="M58.5 2.17287C89.5933 2.17287 114.809 27.1727 114.809 57.9996C114.809 88.8271 89.5933 113.827 58.5 113.827C27.407 113.827 2.19165 88.8273 2.19165 57.9996C2.19165 27.1727 27.4067 2.17287 58.5 2.17287ZM96.5975 20.2281C86.8464 10.5607 73.3762 4.58015 58.5 4.58015C43.6239 4.58015 30.1539 10.5607 20.4029 20.2281C10.6518 29.8956 4.61995 43.2506 4.61995 57.9996C4.61995 72.7488 10.6518 86.1039 20.4029 95.7716C30.1537 105.439 43.6239 111.42 58.5 111.42C73.3762 111.42 86.8464 105.44 96.5975 95.7716C106.348 86.1042 112.38 72.7488 112.38 57.9996C112.38 43.2506 106.348 29.8958 96.5975 20.2281ZM53.9409 83.9621C53.4553 83.9621 53.2126 84.5879 53.2126 85.8398V92.9307C53.2126 94.1981 53.4553 94.8327 53.9409 94.8327C54.4273 94.8327 54.67 94.1981 54.67 92.9307V85.8398C54.67 84.5873 54.4273 83.9621 53.9409 83.9621ZM53.9409 82.3769C52.8029 82.3769 51.945 82.9378 51.3683 84.0596C50.8522 85.0512 50.5938 89.3861 50.5938 91.0282C50.5938 92.6704 50.8709 94.0199 51.4249 95.0764C51.9794 96.1333 52.8181 96.6618 53.9409 96.6618L54.3281 96.5891C54.5562 96.5891 54.67 96.8569 54.67 97.3932V98.7105C54.67 99.4745 54.5716 100.198 54.3738 100.881C54.1609 101.515 53.9031 101.832 53.5996 101.832C53.3872 101.816 53.2163 101.714 53.0871 101.527C52.9579 101.34 52.8937 101.092 52.8937 100.783C52.8937 100.458 52.9619 100.206 53.0986 100.027C53.3718 99.6367 53.5083 99.3684 53.5083 99.2225C53.5083 98.9622 53.4248 98.7309 53.2578 98.5271C53.0908 98.324 52.8862 98.2218 52.6427 98.2218C52.1722 98.2218 51.8004 98.3933 51.5269 98.7346C51.2535 99.0758 51.1173 99.5712 51.1173 100.222C51.1173 101.247 51.3143 102.01 51.7091 102.514C52.1642 103.002 52.8776 103.246 53.8496 103.246C54.9726 103.246 55.8452 102.4 56.4684 100.71C57.0148 99.1982 57.288 97.3851 57.288 95.272V91.0279C57.288 89.4027 57.0296 85.0595 56.5135 84.035C55.9373 82.9298 55.0802 82.3769 53.9409 82.3769ZM44.747 84.5232C44.6559 84.6536 44.6105 84.7912 44.6105 84.9376C44.6556 85.165 44.7015 85.3032 44.747 85.3521L45.1112 85.4983C45.2788 85.5472 45.4001 85.6405 45.476 85.7784C45.552 85.9166 45.5895 86.1813 45.5895 86.5711V101.222C45.5895 101.514 45.5363 101.758 45.4301 101.953C45.4001 102.018 45.2667 102.125 45.0316 102.27C44.7963 102.417 44.6791 102.563 44.6791 102.71C44.7091 102.904 44.7736 103.027 44.8727 103.075C44.9708 103.124 45.2104 103.148 45.5895 103.148H47.7076C48.1326 103.148 48.3941 103.12 48.4927 103.064C48.5916 103.006 48.641 102.889 48.641 102.71C48.641 102.596 48.6219 102.511 48.5838 102.454C48.546 102.397 48.4286 102.316 48.2308 102.21C48.0337 102.104 47.9122 102.01 47.8667 101.929C47.7605 101.75 47.7076 101.514 47.7076 101.222V84.4011V82.8398C47.6765 82.7751 47.6162 82.6939 47.5249 82.5961C47.3997 82.5961 47.2708 82.6452 47.134 82.7425L44.747 84.5232ZM68.7317 82.3769C67.593 82.3769 66.7353 82.9378 66.1583 84.0596C65.6422 85.0512 65.3839 89.3861 65.3839 91.0282C65.3839 92.6704 65.661 94.0199 66.215 95.0764C66.7692 96.1333 67.6081 96.6618 68.7317 96.6618L69.1187 96.5891C69.3462 96.5891 69.4603 96.8569 69.4603 97.3932V98.7105C69.4603 99.4745 69.3614 100.198 69.1641 100.881C68.9514 101.515 68.6934 101.832 68.3902 101.832C68.1775 101.816 68.0068 101.714 67.8779 101.527C67.7488 101.34 67.6843 101.092 67.6843 100.783C67.6843 100.458 67.7524 100.206 67.8892 100.027C68.1624 99.6367 68.2988 99.3684 68.2988 99.2225C68.2988 98.9622 68.2156 98.7309 68.0483 98.5271C67.8813 98.324 67.6765 98.2218 67.4335 98.2218C66.9631 98.2218 66.5915 98.3933 66.3178 98.7346C66.0446 99.0758 65.9081 99.5712 65.9081 100.222C65.9081 101.247 66.1051 102.01 66.5002 102.514C66.9555 103.002 67.6689 103.246 68.6407 103.246C69.7635 103.246 70.6368 102.4 71.2595 100.71C71.8059 99.1982 72.0791 97.3851 72.0791 95.272V91.0279C72.0791 89.4027 71.8207 85.0595 71.3048 84.035C70.7274 82.9298 69.8702 82.3769 68.7317 82.3769ZM68.7317 83.9621C68.2456 83.9621 68.0029 84.5879 68.0029 85.8398V92.9307C68.0029 94.1981 68.2456 94.8327 68.7317 94.8327C69.2173 94.8327 69.4603 94.1981 69.4603 92.9307V85.8398C69.4603 84.5873 69.2173 83.9621 68.7317 83.9621ZM59.5375 84.5232C59.4467 84.6536 59.4011 84.7912 59.4011 84.9376C59.4467 85.165 59.4924 85.3032 59.5375 85.3521L59.9018 85.4983C60.0688 85.5472 60.1904 85.6405 60.2663 85.7784C60.3423 85.9166 60.3801 86.1813 60.3801 86.5711V101.222C60.3801 101.514 60.3269 101.758 60.2204 101.953C60.1901 102.018 60.0573 102.125 59.8222 102.27C59.5868 102.417 59.4694 102.563 59.4694 102.71C59.4994 102.904 59.5639 103.027 59.6628 103.075C59.7611 103.124 60.0002 103.148 60.3801 103.148H62.4979C62.9227 103.148 63.1847 103.12 63.2836 103.064C63.3827 103.006 63.4313 102.889 63.4313 102.71C63.4313 102.596 63.4125 102.511 63.3741 102.454C63.3365 102.397 63.2189 102.316 63.0216 102.21C62.8241 102.104 62.703 102.01 62.6571 101.929C62.5509 101.75 62.4979 101.514 62.4979 101.222V84.4011V82.8398C62.4674 82.7751 62.4066 82.6939 62.3155 82.5961C62.1902 82.5961 62.0613 82.6452 61.9246 82.7425L59.5375 84.5232ZM34.4046 92.0428C32.6373 91.8809 31.9119 94.432 32.4742 95.8458C32.8082 96.6853 33.5858 97.5569 34.7827 97.9502C35.5248 98.1936 36.2526 98.3103 36.9216 98.3074C37.694 98.3033 38.3913 98.1401 38.9476 97.8278C39.8063 97.3458 40.8603 96.0034 40.8018 94.6578C40.7942 93.1998 39.8736 91.3647 38.2485 90.4725C36.6923 89.6177 34.204 89.6089 31.8359 89.9993C29.6482 90.3602 27.7569 90.0937 26.5717 89.2221C24.4532 87.6626 27.377 86.0221 28.319 87.6116C28.7323 88.0344 29.0987 86.4596 28.6801 86.0364C27.478 84.8207 25.6678 85.1762 24.8138 86.529C24.2794 87.3752 24.205 88.8522 25.2717 89.8523C27.1586 91.6209 29.1102 91.7422 32.0747 91.4374C35.2811 91.1084 37.4391 91.8801 38.0674 92.9118C38.875 94.2387 37.8135 95.9573 36.465 96.3343C35.4799 96.609 34.0743 96.2926 33.7682 95.2327C33.6103 94.6881 34.2603 94.4454 34.9004 94.9768C35.4254 95.4128 36.1962 93.9531 36.1033 93.3382C36.0117 92.7318 35.1856 92.1145 34.4046 92.0428ZM82.9333 91.8915C82.1518 91.9546 81.3187 92.5623 81.22 93.1677C81.1201 93.7816 81.8742 95.2498 82.4042 94.8198C83.0505 94.2956 83.6974 94.5453 83.5335 95.0881C83.2149 96.1446 81.8056 96.4455 80.8244 96.1594C79.4801 95.7677 78.4379 94.0372 79.2606 92.7193C79.9007 91.6946 82.0673 90.9472 85.2695 91.3122C88.2309 91.6496 90.183 91.5505 92.0905 89.8029C93.1687 88.8149 93.1108 87.3372 92.586 86.485C91.7471 85.1229 89.9411 84.7475 88.7254 85.9494C88.3019 86.368 88.6505 87.9467 89.0683 87.5289C90.0283 85.95 92.9331 87.6228 90.797 89.1585C89.6022 90.0169 87.7083 90.2621 85.5245 89.8766C83.1614 89.4596 80.6731 89.4407 79.1072 90.2782C77.4719 91.1521 76.5307 92.9768 76.5067 94.4346C76.4328 95.7793 77.4711 97.1334 78.3246 97.625C78.8773 97.9434 79.5727 98.1147 80.3448 98.1274C81.0139 98.138 81.743 98.0293 82.4879 97.7939C83.6888 97.4141 84.4763 96.5516 84.8202 95.7154C85.3985 94.3086 84.7023 91.7494 82.9333 91.8915ZM77.1118 48.008V48.8149H77.4215V48.4116H78.81V48.8149H79.1197V48.008H77.1118ZM87.1473 73.4864C88.4311 71.1565 89.4349 68.648 90.1134 66.0056C90.7699 63.4493 91.1188 60.7699 91.1188 58.0089C91.1188 49.0798 87.4669 40.9947 81.5639 35.1422C75.661 29.2894 67.5061 25.669 58.5003 25.669C49.4942 25.669 41.3396 29.2897 35.4364 35.1422C29.5334 40.9947 25.8816 49.0798 25.8816 58.0089C25.8816 60.7696 26.2304 63.449 26.887 66.0053C27.5654 68.648 28.5692 71.1567 29.8528 73.4864L29.9386 73.6354H87.0549L87.1473 73.4864ZM28.4909 73.6354L28.7438 74.1557H88.2589L88.5094 73.6354C89.7308 71.336 90.6906 68.8835 91.3494 66.3168C92.0318 63.6591 92.3945 60.8751 92.3945 58.0089C92.3945 48.7309 88.5999 40.3295 82.4658 34.2481C76.3318 28.1666 67.8581 24.4042 58.5003 24.4042C49.1425 24.4042 40.6687 28.1664 34.5346 34.2481C28.4007 40.3295 24.6061 48.7309 24.6061 58.0089C24.6061 60.8751 24.9688 63.6589 25.6511 66.3166C26.3098 68.8832 27.2698 71.3358 28.4909 73.6354ZM74.7973 48.008V48.8149H75.1073V48.4116H76.4955V48.8149H76.8055V48.008H74.7973ZM72.4833 48.008V48.8149H72.793V48.4116H74.1812V48.8149H74.4909V48.008H72.4833ZM70.169 48.008V48.8149H70.479V48.4116H71.8669V48.8149H72.1772V48.008H70.169ZM67.8547 48.008V48.8149H68.1644V48.4116H69.5526V48.8149H69.8624V48.008H67.8547ZM65.5402 48.008V48.8149H65.8499V48.4116H67.2381V48.8149H67.5476V48.008H65.5402ZM63.2262 48.008V48.8149H63.5359V48.4116H64.9238V48.8149H65.2338V48.008H63.2262ZM60.9119 48.008V48.8149H61.2214V48.4116H62.6098V48.8149H62.9196V48.008H60.9119ZM58.5974 48.008V48.8149H58.9071V48.4116H60.2953V48.8149H60.605V48.008H58.5974ZM56.2833 48.008V48.8149H56.5931V48.4116H57.9813V48.8149H58.2908V48.008H56.2833ZM53.9688 48.008V48.8149H54.2785V48.4116H55.667V48.8149H55.9767V48.008H53.9688ZM51.6545 48.008V48.8149H51.964V48.4116H53.3525V48.8149H53.6622V48.008H51.6545ZM49.3405 48.008V48.8149H49.65V48.4116H51.0382V48.8149H51.3479V48.008H49.3405ZM47.026 48.008V48.8149H47.3357V48.4116H48.7242V48.8149H49.0339V48.008H47.026ZM44.7117 48.008V48.8149H45.0215V48.4116H46.4097V48.8149H46.7197V48.008H44.7117ZM42.3975 48.008V48.8149H42.7069V48.4116H44.0954V48.8149H44.4051V48.008H42.3975ZM40.0829 48.008V48.8149H40.3929V48.4116H41.7809V48.8149H42.0909V48.008H40.0829ZM37.7689 48.008V48.8149H38.0786V48.4116H39.4668V48.8149H39.7766V48.008H37.7689ZM35.6851 48.008V48.8149H35.9948V48.4116H37.1526V48.8149H37.4623V48.008H35.6851ZM79.4263 48.008V48.8149H79.7361V48.4116H80.9111V48.8149H81.2208V48.008H79.4263ZM34.8848 71.0587H34.8816V70.0816H32.4257V71.0587H32.0914V72.2514H35.2161V71.0587H34.8848ZM32.4257 69.6881H34.8816V61.8365H32.4257V69.6881ZM32.4257 61.4482H34.8816V60.3896H32.4257V61.4482ZM32.4257 59.9924H34.8816V59.7498H32.4257V59.9924ZM34.8816 59.3583V57.8211H32.4257V59.3583H34.8816ZM32.4257 55.6878H34.8816V52.0428H32.4257V55.6878ZM34.8816 57.2437V56.0756H32.4257V57.2437H34.8816ZM32.4257 51.6511H34.8816V49.8329H32.4257V51.6511ZM32.4257 49.44H34.8816V48.3922H32.4257V49.44ZM49.7095 45.4393H47.7749V46.4483H49.7095V45.4393ZM49.965 45.0554H47.5189V46.7427H49.965V45.0554ZM54.7769 45.4517H50.5993V46.4472H54.7769V45.4517ZM62.0665 45.4517V46.4472H66.1709V45.4517H62.0665ZM61.7868 45.3775H60.335C60.3107 44.4733 60.0589 43.9033 59.125 43.528L58.9003 42.8814L58.9006 42.8809C58.4893 42.4535 57.665 42.638 57.659 43.5282C56.7199 43.9067 56.4629 44.4875 56.4548 45.3777H55.0569V46.4475H61.7868V45.3775ZM55.9285 44.4389C55.9402 44.4138 56.0094 44.2518 56.0566 44.1473C55.4776 44.1809 54.903 44.4916 54.7944 45.059H50.3582V46.7453H66.4125V45.059H62.0551C61.941 44.4632 61.3239 44.1649 60.7462 44.1447C60.7856 44.2288 60.818 44.2979 60.8714 44.4324C61.2783 44.4797 61.6926 44.6996 61.7777 45.0994H60.6236C60.5883 44.3118 60.1244 43.6752 59.4149 43.3577C59.3937 43.1052 59.2865 42.8778 59.1237 42.7086H59.1234C58.5068 42.0681 57.444 42.4678 57.3694 43.3575C56.6596 43.6754 56.1962 44.3118 56.1604 45.0996H55.0715C55.1535 44.7154 55.5399 44.4966 55.9285 44.4389ZM69.0245 45.4393H67.0901V46.4483H69.0245V45.4393ZM69.2805 45.0554H66.8344V46.7427H69.2805V45.0554ZM84.4528 71.0587H84.4499V70.0816H81.9935V71.0587H81.6592V72.2514H84.7842V71.0587H84.4528ZM81.9935 69.6881H84.4499V61.8365H81.9935V69.6881ZM81.9935 61.4482H84.4499V60.3896H81.9935V61.4482ZM81.9935 59.9924H84.4499V59.7498H81.9935V59.9924ZM84.4499 59.3583V57.8211H81.9935V59.3583H84.4499ZM81.9935 55.6878H84.4499V52.0428H81.9935V55.6878ZM84.4499 57.2437V56.0756H81.9935V57.2437H84.4499ZM81.9935 51.6511H84.4499V49.8329H81.9935V51.6511ZM81.9935 49.44H84.4499V48.3922H81.9935V49.44ZM83.2214 47.5672H81.9935V48.0044H84.4499V47.5672H83.2214ZM31.8208 44.4456V47.0588H85.18V44.4456H62.2578C61.9079 44.0549 61.301 43.7841 60.5982 43.7453C60.4286 43.4729 60.1314 43.24 59.7523 43.0752C59.3914 41.6676 57.3477 41.6875 57.0166 43.1039C56.6669 43.2669 56.3927 43.4897 56.233 43.7481C55.5501 43.7962 54.9617 44.0635 54.6199 44.4453H31.8208V44.4456ZM33.6534 47.5672H32.4257V48.0044H34.8816V47.5672H33.6534ZM74.559 51.646H75.2281V51.3611L75.8901 51.1883L75.6563 50.3338C75.2863 50.3861 74.9116 50.4608 74.523 50.5672V51.646H74.559ZM38.5669 51.9047C38.3085 51.9331 38.1308 51.9642 37.8394 52.048V53.8455H38.5669V51.9047ZM40.1255 51.8842L38.7571 51.8861V53.8455H40.1255V51.8842ZM41.0727 52.048C40.7721 51.9619 40.5889 51.9316 40.3154 51.9021V53.8455H41.0727V52.048ZM41.0591 54.0564H39.5464V56.7775H41.0591V54.0564ZM39.3463 54.0564H37.8394V56.7775H39.3463V54.0564ZM36.501 50.5672V51.646H37.2061V51.3611L37.8681 51.1883L37.634 50.3338C37.2645 50.3861 36.8893 50.4608 36.501 50.5672ZM39.9331 50.2295L39.8123 51.0737L40.7794 51.1544L41.0129 50.3007C40.6539 50.2608 40.2938 50.2394 39.9331 50.2295ZM39.1057 51.0735L38.9852 50.229C38.623 50.2381 38.2616 50.2593 37.9012 50.2994L38.135 51.1529L39.1057 51.0735ZM39.6933 50.0368L39.2484 50.0461L39.3437 51.0595L39.583 51.0579L39.6933 50.0368ZM42.4134 50.5695C42.0254 50.4632 41.6501 50.3874 41.2801 50.3348L41.0463 51.1881L41.6997 51.349V51.6457H42.4134V50.5695ZM46.1513 51.9047C45.893 51.9331 45.7153 51.9642 45.4238 52.048V53.8455H46.1513V51.9047ZM47.7097 51.8842L46.3416 51.8861V53.8455H47.7097V51.8842ZM48.6569 52.048C48.3565 51.9619 48.1734 51.9316 47.8999 51.9021V53.8455H48.6569V52.048ZM48.6433 54.0564H47.1306V56.7775H48.6433V54.0564ZM46.9308 54.0564H45.4241V56.7775H46.9308V54.0564ZM44.0855 50.5672V51.646H44.7903V51.3611L45.4523 51.1883L45.2185 50.3338C44.849 50.3861 44.4738 50.4608 44.0855 50.5672ZM47.5173 50.2295L47.3971 51.0737L48.3636 51.1544L48.5974 50.3007C48.2383 50.2608 47.878 50.2394 47.5173 50.2295ZM46.6899 51.0735L46.5696 50.229C46.2074 50.2381 45.846 50.2593 45.4854 50.2994L45.7192 51.1529L46.6899 51.0735ZM47.2778 50.0368L46.8326 50.0461L46.9284 51.0595L47.1674 51.0579L47.2778 50.0368ZM49.9976 50.5695C49.6096 50.4632 49.2343 50.3874 48.8643 50.3348L48.6308 51.1881L49.2839 51.349V51.6457H49.9976V50.5695ZM48.8411 51.8517C47.8046 51.5735 46.2698 51.5738 45.2333 51.8517V57.0098H48.8411V51.8517ZM53.8013 51.9047C53.543 51.9331 53.3653 51.9642 53.0738 52.048V53.8455H53.8013V51.9047ZM55.3596 51.8842L53.9915 51.8861V53.8455H55.3596V51.8842ZM56.3071 52.048C56.0065 51.9619 55.8233 51.9316 55.5498 51.9021V53.8455H56.3071V52.048ZM56.2935 54.0564H54.7809V56.7775H56.2935V54.0564ZM54.5805 54.0564H53.0738V56.7775H54.5805V54.0564ZM51.7357 50.5672V51.646H52.4405V51.3611L53.1025 51.1883L52.8687 50.3338C52.4987 50.3861 52.1235 50.4608 51.7357 50.5672ZM55.1673 50.2295L55.0468 51.0737L56.0135 51.1544L56.2471 50.3007C55.8883 50.2608 55.5279 50.2394 55.1673 50.2295ZM54.3401 51.0735L54.2196 50.229C53.8577 50.2381 53.496 50.2593 53.1356 50.2994L53.3694 51.1529L54.3401 51.0735ZM54.9278 50.0368L54.4826 50.0461L54.5784 51.0595L54.8177 51.0579L54.9278 50.0368ZM57.6475 50.5695C57.2595 50.4632 56.8846 50.3874 56.514 50.3348L56.2807 51.1881L56.9339 51.349V51.6457H57.6475V50.5695ZM56.4913 51.8517C55.4546 51.5735 53.92 51.5738 52.8833 51.8517V57.0098H56.4913V51.8517ZM61.3333 51.9047C61.075 51.9331 60.8973 51.9642 60.6058 52.048V53.8455H61.3333V51.9047ZM62.8916 51.8842L61.5235 51.8861V53.8455H62.8916V51.8842ZM63.8391 52.048C63.5385 51.9619 63.3553 51.9316 63.0821 51.9021V53.8455H63.8391V52.048ZM63.8255 54.0564H62.3131V56.7775H63.8255V54.0564ZM62.1127 54.0564H60.6061V56.7775H62.1127V54.0564ZM59.2677 50.5672V51.646H59.9722V51.3611L60.6343 51.1883L60.4005 50.3338C60.031 50.3861 59.6557 50.4608 59.2677 50.5672ZM62.6993 50.2295L62.579 51.0737L63.5458 51.1544L63.7794 50.3007C63.4203 50.2608 63.0602 50.2394 62.6993 50.2295ZM61.8722 51.0735L61.7519 50.229C61.3899 50.2381 61.0283 50.2593 60.6679 50.2994L60.9015 51.1529L61.8722 51.0735ZM62.4598 50.0368L62.0149 50.0461L62.1101 51.0595L62.3497 51.0579L62.4598 50.0368ZM65.1798 50.5695C64.7915 50.4632 64.4166 50.3874 64.0466 50.3348L63.813 51.1881L64.4659 51.349V51.6457H65.1798V50.5695ZM64.0231 51.8517C62.9864 51.5735 61.452 51.5738 60.4153 51.8517V57.0098H64.0231V51.8517ZM76.5891 51.9047C76.3308 51.9331 76.1528 51.9642 75.8614 52.048V53.8455H76.5891V51.9047ZM78.1472 51.8842L76.7791 51.8861V53.8455H78.1472V51.8842ZM79.0947 52.048C78.7943 51.9619 78.6112 51.9316 78.3377 51.9021V53.8455H79.0947V52.048ZM79.0811 54.0564H77.5684V56.7775H79.0811V54.0564ZM77.3683 54.0564H75.8614V56.7775H77.3683V54.0564ZM77.9549 50.2295L77.8343 51.0737L78.8011 51.1544L79.0349 50.3007C78.6759 50.2608 78.3158 50.2394 77.9549 50.2295ZM77.1277 51.0735L77.0072 50.229C76.6452 50.2381 76.2838 50.2593 75.9232 50.2994L76.157 51.1529L77.1277 51.0735ZM77.7154 50.0368L77.2704 50.0461L77.366 51.0595L77.6055 51.0579L77.7154 50.0368ZM79.2789 51.8517C78.2422 51.5735 76.7076 51.5738 75.6709 51.8517V57.0098H79.2789V51.8517ZM68.935 51.9047C68.6767 51.9331 68.4987 51.9642 68.2072 52.048V53.8455H68.935V51.9047ZM70.4936 51.8842L69.1252 51.8861V53.8455H70.4936V51.8842ZM71.4408 52.048C71.1405 51.9619 70.9573 51.9316 70.6838 51.9021V53.8455H71.4408V52.048ZM71.4272 54.0564H69.9148V56.7775H71.4272V54.0564ZM69.7144 54.0564H68.208V56.7775H69.7144V54.0564ZM66.8694 50.5672V51.646H67.5745V51.3611L68.2362 51.1883L68.0024 50.3338C67.6326 50.3861 67.2574 50.4608 66.8694 50.5672ZM70.3013 50.2295L70.1807 51.0737L71.1472 51.1544L71.3813 50.3007C71.0223 50.2608 70.6622 50.2394 70.3013 50.2295ZM69.4738 51.0735L69.353 50.229C68.9914 50.2381 68.6294 50.2593 68.2693 50.2994L68.5029 51.1529L69.4738 51.0735ZM70.0615 50.0368L69.6166 50.0461L69.7118 51.0595L69.9514 51.0579L70.0615 50.0368ZM72.7815 50.5695C72.3932 50.4632 72.018 50.3874 71.6482 50.3348L71.4144 51.1881L72.0676 51.349V51.6457H72.7815V50.5695ZM71.625 51.8517C70.5883 51.5735 69.0532 51.5738 68.017 51.8517V57.0098H71.625V51.8517ZM80.4354 51.646V50.5695C80.0474 50.4632 79.6724 50.3874 79.3021 50.3348L79.0686 51.1881L79.722 51.349V51.6457H80.4354V51.646ZM78.0118 49.8332L77.9938 49.9657L80.7023 50.3592V51.646H81.5666V49.8332H78.0118ZM70.3576 49.8332L70.3396 49.9657L73.0482 50.3592V51.646H74.2477V50.3711C74.9567 50.1036 76.2016 49.9874 76.9693 49.9662L76.9505 49.8332H70.3576ZM62.7562 49.8332L62.7379 49.9657L65.4468 50.3592V51.646H66.5938V50.3711C67.3041 50.1036 68.5467 49.9874 69.316 49.9662L69.2969 49.8332H62.7562ZM55.2242 49.8332L55.2059 49.9657L57.9145 50.3592V51.646H58.9919V50.3711C59.7043 50.1033 60.9427 49.9874 61.714 49.9662L61.695 49.8332H55.2242ZM47.574 49.8332L47.556 49.9657L50.2648 50.3592V51.646H51.4604V50.3711C52.1704 50.1036 53.413 49.9874 54.1825 49.9662L54.1635 49.8332H47.574ZM39.9898 49.8332L39.9718 49.9657L42.6803 50.3592V51.646H43.8102V50.3711C44.5192 50.1036 45.7638 49.9874 46.532 49.9662L46.5133 49.8332H39.9898ZM36.2257 51.646V50.3711C36.9347 50.1036 38.1794 49.9874 38.9473 49.9662L38.9283 49.8332H35.3422V51.646H36.2257ZM36.6067 59.3583V57.7494H35.3675V59.3583H36.6067ZM41.9805 59.3583V57.7494H36.9412V59.3583H41.9805ZM44.1906 59.3583V57.7494H42.3351V59.3583H44.1906ZM49.5451 59.3583V57.7494H44.5442V59.3583H49.5451ZM51.7618 59.3583V57.7494H49.8929V59.3583H51.7618ZM57.1546 59.3583V57.7494H52.1094V59.3583H57.1546ZM59.3713 59.3583V57.7494H57.509V59.3583H59.3713ZM64.7266 59.3583V57.7494H59.7189V59.3583H64.7266ZM66.9367 59.3583V57.7494H65.0874V59.3583H66.9367ZM72.3123 59.3583V57.7494H67.2906V59.3583H72.3123ZM74.529 59.3583V57.7494H72.6993V59.3583H74.529ZM79.9683 59.3583V57.7494H74.8766V59.3583H79.9683ZM81.5663 57.7494H80.2895V59.3583H81.5663V57.7494ZM79.6575 57.2183H81.5663V51.9996H79.6575V57.2183ZM72.0036 57.2183H75.292V51.9996H72.0036V57.2183ZM64.4022 57.2183H67.6384V51.9996H64.4022V57.2183ZM56.8702 57.2183H60.0364V51.9996H56.8702V57.2183ZM49.2202 57.2183H52.5044V51.9996H49.2202V57.2183ZM41.6358 57.2183H44.8542V51.9996H41.6358V57.2183ZM35.3677 51.9996V57.2183H37.2703V51.9996H35.3677ZM38.2438 58.2498H37.5142V58.8368H38.2438V58.2498ZM39.8121 58.2498H39.0822V58.8368H39.8121V58.2498ZM41.3853 58.2498H40.6554V58.8368H41.3853V58.2498ZM48.9885 58.2498H48.2587V58.8368H48.9885V58.2498ZM48.0103 57.9823H47.9568V59.104H49.2902V57.9823H48.0103ZM40.4067 57.9823H40.3533V59.104H41.6867V57.9823H40.4067ZM38.8338 57.9823H38.7806V59.104H40.1142V57.9823H38.8338ZM47.4156 58.2498H46.6857V58.8368H47.4156V58.2498ZM46.4373 57.9823H46.3836V59.104H47.7172V57.9823H46.4373ZM45.8473 58.2498H45.1175V58.8368H45.8473V58.2498ZM44.8691 57.9823H44.8156V59.104H46.1492V57.9823H44.8691ZM56.5659 58.2498H55.8364V58.8368H56.5659V58.2498ZM55.5877 57.9823H55.5342V59.104H56.8679V57.9823H55.5877ZM54.993 58.2498H54.2634V58.8368H54.993V58.2498ZM54.0147 57.9823H53.9613V59.104H55.2947V57.9823H54.0147ZM53.4248 58.2498H52.6949V58.8368H53.4248V58.2498ZM52.4465 57.9823H52.393V59.104H53.7267V57.9823H52.4465ZM64.1697 58.2498H63.4396V58.8368H64.1697V58.2498ZM63.1909 57.9823H63.1377V59.104H64.4711V57.9823H63.1909ZM62.5965 58.2498H61.8667V58.8368H62.5965V58.2498ZM61.6183 57.9823H61.565V59.104H62.8984V57.9823H61.6183ZM61.028 58.2498H60.2987V58.8368H61.028V58.2498ZM60.0503 57.9823H59.9968V59.104H61.3302V57.9823H60.0503ZM71.7323 58.2498H71.0024V58.8368H71.7323V58.2498ZM70.7535 57.9823H70.7003V59.104H72.0337V57.9823H70.7535ZM70.1591 58.2498H69.4295V58.8368H70.1591V58.2498ZM69.1811 57.9823H69.1273V59.104H70.4607V57.9823H69.1811ZM68.5908 58.2498H67.861V58.8368H68.5908V58.2498ZM67.6123 57.9823H67.5591V59.104H68.8927V57.9823H67.6123ZM79.3666 58.2498H78.637V58.8368H79.3666V58.2498ZM78.3886 57.9823H78.3351V59.104H79.6687V57.9823H78.3886ZM77.7936 58.2498H77.064V58.8368H77.7936V58.2498ZM76.8154 57.9823H76.7621V59.104H78.0955V57.9823H76.8154ZM76.2256 58.2498H75.4958V58.8368H76.2256V58.2498ZM75.2471 57.9823H75.1939V59.104H76.5273V57.9823H75.2471ZM37.2658 57.9823H37.2126V59.104H38.5457V57.9823H37.2658ZM35.3677 59.749V59.9942C50.7673 59.9942 66.167 59.9942 81.5666 59.9942V59.749H35.3677ZM35.3677 60.4105H36.1741V61.1245H36.9091V60.4105H37.7673V61.1245H38.5027V60.4105H39.3604V61.1245H40.0957V60.4105H40.9542V61.1245H41.689V60.4105H42.5472V61.1245H43.2823V60.4105H44.1405V61.1245H44.8756V60.4105H45.7336V61.1245H46.4689V60.4105H47.3269V61.1245H48.0619V60.4105H48.9204V61.1245H49.6552V60.4105H50.5135V61.1245H51.2485V60.4105H52.1068V61.1245H52.8418V60.4105H53.7003V61.1245H54.4351V60.4105H55.2931V61.1245H56.0281V60.4105H56.8866V61.1245H57.6214V60.4105H59.3029V61.1245H60.038V60.4105H60.896V61.1245H61.631V60.4105H62.4893V61.1245H63.2246V60.4105H64.0828V61.1245H64.8176V60.4105H65.6759V61.1245H66.4109V60.4105H67.2689V61.1245H68.0042V60.4105H68.8622V61.1245H69.5973V60.4105H70.4555V61.1245H71.1906V60.4105H72.0488V61.1245H72.7839V60.4105H73.6418V61.1245H74.3766V60.4105H75.2351V61.1245H75.9699V60.4105H76.8284V61.1245H77.5635V60.4105H78.4217V61.1245H79.1565V60.4105H80.0147V61.1245H80.7498V60.4105H81.5658V60.2879H35.3677V60.4105ZM42.1973 62.2696V63.0669H43.5858V62.2696H42.1973ZM42.1973 63.3466V64.1442H43.5858V63.3466H42.1973ZM42.1973 64.4239V65.2215H43.5858V64.4239H42.1973ZM42.1973 65.5011V66.2985H43.5858V65.5011H42.1973ZM42.1973 66.5781V67.3757H43.5858V66.5781H42.1973ZM42.1973 67.6554V68.4527H43.5858V67.6554H42.1973ZM42.1973 68.7327V69.5303H43.5858V68.7327H42.1973ZM49.966 62.2696V63.0669H51.3547V62.2696H49.966ZM49.966 63.3466V64.1442H51.3547V63.3466H49.966ZM49.966 64.4239V65.2215H51.3547V64.4239H49.966ZM49.966 65.5011V66.2985H51.3547V65.5011H49.966ZM49.966 66.5781V67.3757H51.3547V66.5781H49.966ZM49.966 67.6554V68.4527H51.3547V67.6554H49.966ZM49.966 68.7327V69.5303H51.3547V68.7327H49.966ZM74.6545 62.2696H73.2661V63.0669H74.6545V62.2696ZM74.6545 63.3466H73.2661V64.1442H74.6545V63.3466ZM74.6545 64.4239H73.2661V65.2215H74.6545V64.4239ZM74.6545 65.5011H73.2661V66.2985H74.6545V65.5011ZM74.6545 66.5781H73.2661V67.3757H74.6545V66.5781ZM74.6545 67.6554H73.2661V68.4527H74.6545V67.6554ZM74.6545 68.7327H73.2661V69.5303H74.6545V68.7327ZM66.9119 62.2696H65.5235V63.0669H66.9119V62.2696ZM66.9119 63.3466H65.5235V64.1442H66.9119V63.3466ZM66.9119 64.4239H65.5235V65.2215H66.9119V64.4239ZM66.9119 65.5011H65.5235V66.2985H66.9119V65.5011ZM66.9119 66.5781H65.5235V67.3757H66.9119V66.5781ZM66.9119 67.6554H65.5235V68.4527H66.9119V67.6554ZM66.9119 68.7327H65.5235V69.5303H66.9119V68.7327ZM57.735 62.2556V63.0649H59.1252V62.2556H57.735ZM57.735 63.3344V64.1434H59.1252V63.3344H57.735ZM57.735 64.413V65.2217H59.1252V64.413H57.735ZM57.735 65.4915V66.3003H59.1252V65.4915H57.735ZM57.735 66.5701V67.3791H59.1252V66.5701H57.735ZM57.735 67.6487V68.4576H59.1252V67.6487H57.735ZM57.735 68.7272V69.5362H59.1252V68.7272H57.735ZM70.6653 61.4358L70.5792 61.7009L72.7993 62.0921V69.9069H75.048V62.617C77.0933 62.0606 78.5652 62.0595 80.6139 62.617V69.9069H81.5666V61.4355H70.6653V61.4358ZM47.3574 61.4358L47.2715 61.7007L49.4979 62.0921V69.9069H51.7678V62.617C53.8052 62.0652 55.2889 62.0551 57.3336 62.617V69.9069H59.5054V62.617L60.9993 62.2867C62.4647 62.0916 63.657 62.2321 65.071 62.617V69.9069H67.3607V62.0921L69.6202 61.6978L69.5636 61.4358H47.3574ZM35.3677 61.4358V69.9072H36.2252V62.6173L37.7191 62.2869C39.1777 62.0929 40.3825 62.2321 41.7908 62.6173V69.9072H44.0596V62.0924L46.3217 61.6978L46.2648 61.436H35.3677V61.4358ZM46.2821 64.511V71.7914H48.7889V64.511H46.2821ZM44.8135 64.511V71.7914H46.0193V64.511H44.8135ZM46.5728 61.6976L46.7121 62.7624L46.8791 62.7627L47.0156 61.6953C46.8887 61.6937 46.6993 61.6968 46.5728 61.6976ZM47.2308 61.9576L47.1249 62.7666L49.1759 63.1145L49.2531 62.2903L47.2308 61.9576ZM46.466 62.7645L46.3601 61.9547L44.3044 62.2903L44.3814 63.1145L46.466 62.7645ZM69.5832 64.511V71.7914H72.09V64.511H69.5832ZM68.1143 64.511V71.7914H69.3201V64.511H68.1143ZM69.8759 61.711L70.0135 62.7622L70.1805 62.7624L70.3164 61.695L69.8759 61.711ZM70.5322 61.9576L70.4263 62.7666L72.4775 63.1145L72.5547 62.2903L70.5322 61.9576ZM69.7671 62.7645L69.6615 61.9547L67.606 62.2903L67.6825 63.1145L69.7671 62.7645ZM67.9272 64.2399H72.2325V63.3186L70.3916 63.0302L70.3879 63.0555C70.1831 63.0685 70.0103 63.0685 69.805 63.0555L69.8013 63.0284L67.927 63.3186V64.2399H67.9272ZM44.6261 64.2399H48.9316V63.3186L47.0905 63.0302L47.0871 63.0555C46.882 63.0685 46.7092 63.0685 46.5041 63.0555L46.5005 63.0284L44.6261 63.3186V64.2399ZM40.472 66.4413H37.5724V70.5493H40.472V66.4413ZM38.1194 63.7605C37.8456 63.8017 37.568 63.8689 37.2773 63.9768V70.8465H40.7671V63.9768C39.9545 63.6757 38.9567 63.6356 38.1194 63.7605ZM38.9311 63.4519H39.0814L39.2015 62.5487L38.8116 62.549L38.9311 63.4519ZM37.1194 63.7706L38.695 63.4576L38.5752 62.5536L36.5735 62.8672V70.2394H35.3677V70.7265H35.8108V72.6262H43.7207V72.019H44.0599V70.2394H41.4429V62.8669L39.4379 62.5518L39.3178 63.4565L41.0025 63.8011V71.0973H37.0425V63.8011L37.1194 63.7706ZM55.9903 66.4413H53.0908V70.5493H55.9901V66.4413H55.9903ZM53.6374 63.7605C53.364 63.8017 53.0861 63.8689 52.7954 63.9768V70.8465H56.2852V63.9768C55.4726 63.6757 54.475 63.6356 53.6374 63.7605ZM54.4492 63.4519H54.5998L54.7195 62.549L54.3294 62.5487L54.4492 63.4519ZM53.0908 64.2086V66.1826H55.9901V64.2086C55.292 63.887 53.8256 63.8697 53.0908 64.2086ZM79.2917 66.4413H76.3924V70.5493H79.2917V66.4413ZM76.9393 63.7605C76.6659 63.8017 76.3877 63.8689 76.097 63.9768V70.8465H79.5868V63.9768C78.7742 63.6754 77.7767 63.6356 76.9393 63.7605ZM77.7508 63.4519H77.9011L78.0209 62.5492L77.6311 62.549L77.7508 63.4519ZM75.9391 63.7706L77.5147 63.4576L77.3947 62.5518L75.3961 62.8669V70.2394H72.7993V72.019H73.1473V72.6262H81.1279V70.7216H81.5663V70.2394H80.2658V62.8672L78.2573 62.5536L78.1373 63.4565L79.8222 63.8011V71.0973H75.8622V63.8011L75.9391 63.7706ZM76.3924 64.2086V66.1826H79.2917V64.2086C78.5937 63.887 77.1269 63.8697 76.3924 64.2086ZM63.7326 66.4413H60.8331V70.5493H63.7326V66.4413ZM61.38 63.7605C61.1063 63.8017 60.8284 63.8689 60.538 63.9768V70.8465H64.0278V63.9768C63.2155 63.6757 62.2176 63.6356 61.38 63.7605ZM62.1918 63.4519H62.3424L62.4619 62.5485L62.072 62.5495L62.1918 63.4519ZM60.3801 63.7706L61.9557 63.4576L61.8359 62.5542L59.8535 62.8669V70.2394H56.9855V62.8672L54.9557 62.5529L54.8357 63.4568L56.5203 63.8014V71.0975H52.5605V63.8014L54.2133 63.4578L54.093 62.5526L52.1161 62.8672V70.2394H49.4979V72.019H49.8462V72.6262H67.022V72.019H67.3613V70.2394H64.7234V62.8669L62.6985 62.5516L62.5783 63.4565L64.2629 63.8011V71.0973H60.3031V63.8011L60.3801 63.7706ZM60.8331 64.2086V66.1826H63.7326V64.2086C63.0346 63.887 61.5682 63.8697 60.8331 64.2086ZM37.5724 64.2086V66.1826H40.472V64.2086C39.774 63.8868 38.3075 63.87 37.5724 64.2086ZM41.2572 51.8517C40.2199 51.5735 38.6861 51.5738 37.6486 51.8517V57.0098H41.2572V51.8517ZM35.3677 47.5778V49.441H81.5666V47.5778H35.3677ZM31.3099 43.9944V47.5229H32.0708V70.682H31.7245V73.1292H85.2925V70.682H84.8659V47.5229H85.6268V43.9944H62.6464C62.0673 43.6151 61.2506 43.3184 60.2953 43.1495C59.9558 40.9864 56.71 41.0156 56.4154 43.1878C55.5478 43.3616 54.8059 43.6426 54.2681 43.9944H31.3099ZM31.3099 43.7675H31.062V47.7876H31.8229V70.4554H31.4766V73.3938H32.0705V73.3928H34.0328V73.3938H85.5404V70.4554H85.1135V47.7876H85.8744V43.7675H62.7176C62.6317 43.7429 61.964 43.2429 60.5048 42.958C60.1233 41.3944 58.1605 40.7642 56.9062 41.835V41.836C56.5563 42.1348 56.3037 42.5415 56.2014 43.002C54.9147 43.283 54.2436 43.7543 54.1974 43.7675H31.3099Z" fill="#FFEEBD"/>
<path fill-rule="evenodd" clip-rule="evenodd" d="M9.39635 68.7939L8.78341 65.3917C8.75157 65.2147 8.70226 65.0693 8.63572 64.9555L8.4982 64.6714C8.4802 64.5718 8.4969 64.4719 8.54778 64.3716C8.56944 64.2994 8.71269 64.1998 8.97755 64.0728L10.4153 63.4244C10.8326 63.2477 11.1306 63.1437 11.309 63.1122C11.5992 63.0607 11.7641 63.1458 11.804 63.367C11.834 63.5331 11.7328 63.7393 11.5008 63.9858L10.7869 64.6259C10.4612 64.9917 10.2332 65.2921 10.1027 65.5262C9.97225 65.7606 9.92502 65.9774 9.96077 66.1766C9.99469 66.3647 10.1265 66.4896 10.3566 66.5517C10.6121 66.5636 10.9184 66.5377 11.2782 66.4741L11.814 66.3792L19.9106 64.9456C20.0445 64.9218 20.1648 64.8551 20.2744 64.7444C20.473 64.5038 20.628 64.3734 20.7397 64.3537C20.8289 64.3379 20.9095 64.3692 20.9813 64.4479L21.1021 64.7348L21.4489 66.6601C21.4768 66.8151 21.4661 66.931 21.4165 67.0083C21.3672 67.0857 21.309 67.1302 21.242 67.1421C21.1191 67.1638 20.9766 67.1235 20.814 67.0207C20.6517 66.9183 20.4641 66.8686 20.2574 66.871L10.5873 68.5831C10.4059 68.6152 10.2387 68.7419 10.0829 68.9636C10.0004 69.0811 9.89788 69.1507 9.77498 69.1722C9.57458 69.2076 9.44802 69.0816 9.39635 68.7939ZM20.7193 58.1809C20.7441 59.1586 20.4346 59.9083 19.7901 60.4304C18.9123 61.1382 17.3401 61.5206 15.0736 61.5773C14.1329 61.6008 13.2502 61.5527 12.4248 61.4329C11.5995 61.3131 10.866 61.1206 10.2243 60.8557C8.8035 60.2842 8.08044 59.4985 8.05486 58.4984C8.02981 57.5207 8.71217 56.7055 10.1017 56.0523C11.4017 55.4461 13.0036 55.1194 14.9077 55.0718C17.1515 55.0156 18.7356 55.3188 19.6596 55.9814C20.3412 56.4701 20.6942 57.2033 20.7193 58.1809ZM14.6227 59.2445C16.6513 59.1935 17.9387 59.0939 18.4849 58.9423C19.031 58.791 19.2995 58.5423 19.2909 58.1998C19.2815 57.8317 18.816 57.582 17.8938 57.4449L16.6165 57.3898L14.5768 57.4408C12.6388 57.4894 11.2135 57.6263 10.3005 57.8516C9.59049 58.0267 9.23875 58.2324 9.24475 58.4684C9.25023 58.6818 9.60641 58.8696 10.3138 59.0318C10.5416 59.0711 10.8404 59.1087 11.2099 59.1444C11.5794 59.1801 11.8719 59.2065 12.0879 59.2235C12.3713 59.2165 12.8136 59.2194 13.4151 59.2323C14.016 59.2455 14.4187 59.2494 14.6227 59.2445ZM12.3805 47.9627C12.5031 47.9845 12.6367 48.0424 12.7839 48.1368C12.8835 48.223 12.9355 48.3179 12.9399 48.4214C12.9039 48.6206 12.6651 48.7952 12.2236 48.9453L11.5564 49.1013L10.6961 49.2744C10.2533 49.3672 10.0119 49.5243 9.97225 49.7455C9.93441 49.9558 10.2455 50.2106 10.9054 50.5102C11.1206 50.594 11.4056 50.69 11.7605 50.7987C12.1151 50.9071 12.3966 50.9912 12.6046 51.0509C12.8835 51.1003 13.3164 51.1911 13.9028 51.3236C14.4894 51.4561 14.8831 51.5399 15.0838 51.5756C17.0815 51.9292 18.3628 52.0876 18.9279 52.0508C19.4931 52.0138 19.8055 51.8294 19.8652 51.4975C19.9331 51.1213 19.704 50.7953 19.1777 50.5195C18.9961 50.4417 18.7685 50.3615 18.4956 50.2789C18.2226 50.1964 17.9353 50.1284 17.6342 50.0751C17.0205 49.9664 16.6293 49.8515 16.461 49.7305C16.293 49.6094 16.2257 49.4547 16.2596 49.2666C16.3013 49.0343 16.5187 48.8672 16.9111 48.7655C17.3039 48.6638 17.8291 48.6711 18.4877 48.7877C19.4363 48.9556 20.1838 49.345 20.7303 49.9555C21.1952 50.5061 21.3701 51.1021 21.2545 51.7437C21.0812 52.7064 20.6259 53.3793 19.889 53.7627C18.8857 54.2814 17.2739 54.3443 15.053 53.9513C13.1891 53.6212 11.6373 53.0469 10.3973 52.2278C9.15707 51.409 8.62476 50.5126 8.80011 49.5388C8.82594 49.3949 8.89848 49.248 9.01773 49.0977L9.14037 48.8967C9.15238 48.8302 9.13098 48.7409 9.07644 48.6284C9.02191 48.5158 9.0026 48.4155 9.01851 48.327C9.03652 48.2274 9.09732 48.1296 9.20091 48.0339C9.3045 47.9381 9.50256 47.8931 9.78959 47.8983C11.0238 47.8538 11.8865 47.8753 12.3805 47.9627ZM11.6947 39.5938L12.0655 38.508C12.1091 38.3802 12.173 38.2888 12.2576 38.2342C12.3421 38.1797 12.4219 38.1649 12.4971 38.19C12.5936 38.2223 12.6829 38.3206 12.7646 38.4844C12.8462 38.6482 12.9676 38.7928 13.1283 38.918L20.8072 43.6653C21.6438 44.1951 22.1863 44.6738 22.4355 45.1014C22.6917 45.5078 22.7291 45.9771 22.5474 46.5096C22.3658 47.0417 21.9752 47.415 21.3756 47.6292C20.7759 47.8435 20.1003 47.8243 19.3486 47.5721C18.6182 47.3271 18.082 47.0226 17.7394 46.6586C17.3968 46.2946 17.3057 45.8783 17.4654 45.4098C17.5781 45.0797 17.8085 44.8427 18.1569 44.6986C18.4048 44.6036 18.6253 44.5886 18.8186 44.6536C19.012 44.7185 19.1354 44.7775 19.1889 44.8313C19.2434 44.8823 19.2392 44.9995 19.1792 45.1751C19.1367 45.3001 19.1325 45.4175 19.1688 45.5215C19.2659 45.6579 19.5286 45.7994 19.9581 45.9435L20.5703 46.1489L20.9789 46.1613C21.2049 46.1303 21.3489 46.0245 21.4105 45.8434C21.4721 45.6623 21.2495 45.3681 20.7423 44.9607C20.2775 44.6386 19.8895 44.4254 19.5782 44.3209C19.2559 44.2127 19 44.1566 18.81 44.1522L11.2336 44.049C11.1264 44.013 11.0043 44.0552 10.8675 44.1752C10.7128 44.2777 10.5659 44.3054 10.4263 44.2585C10.3618 44.2368 10.3083 44.1832 10.2658 44.0979C10.2233 44.0125 10.2272 43.895 10.2781 43.746L10.8613 42.0373C10.8939 41.9415 10.95 41.8652 11.0291 41.8088C11.1081 41.7522 11.1961 41.7224 11.2929 41.7193C11.3894 41.7516 11.4726 41.8241 11.541 41.9389C11.6104 42.0512 11.7213 42.1299 11.8779 42.1705L15.857 42.2416C15.9519 42.2349 16.0148 42.2264 16.0435 42.2121L16.0876 42.1883L16.0451 42.1027L15.8906 41.9767L12.6688 40.003C12.5756 39.9598 12.4439 39.9779 12.275 40.0519C12.1052 40.1285 11.9619 40.1456 11.8437 40.106C11.7793 40.0843 11.7258 40.0307 11.6832 39.9453C11.6396 39.86 11.6438 39.7428 11.6947 39.5938ZM14.1277 34.4755C14.0429 34.6216 14.0426 34.7575 14.1267 34.8832L14.4275 35.2102L22.3833 41.6839L22.5474 41.8745C22.6315 42.0003 22.6424 42.1167 22.5803 42.2238C22.4955 42.37 22.5193 42.4872 22.651 42.5754L22.9062 42.682L23.4568 42.8209L24.0685 42.9557C24.6832 43.1246 25.0577 43.2118 25.1994 43.2211C25.3387 43.2291 25.442 43.1748 25.5099 43.0579C25.6117 42.8825 25.5803 42.7221 25.4162 42.5767L24.9301 42.1635L24.4207 41.7563C24.2412 41.615 24.2078 41.4469 24.3208 41.2521L25.7278 38.8259C25.8295 38.6505 25.9997 38.605 26.2387 38.6893L26.7908 38.8875L27.3576 39.0939C27.6175 39.1643 27.7983 39.1118 27.9001 38.9364C27.9567 38.8388 27.9507 38.7253 27.8821 38.5954L27.0886 37.7541L26.4947 37.1433L26.044 36.7309C25.936 36.6693 25.822 36.7081 25.7019 36.847C25.6171 36.9932 25.4248 37.0261 25.1297 36.9487L15.428 33.6543L14.9854 33.5382C14.8041 33.5125 14.6634 33.5749 14.5616 33.7278L14.1277 34.4755ZM19.0683 36.8869L18.6837 36.8005L18.5712 36.7914C18.5428 36.8628 18.6521 36.9899 18.9021 37.1681L22.7408 40.2899L22.9694 40.4819L23.1721 40.6169C23.318 40.6871 23.4258 40.6643 23.4936 40.5474L24.4077 38.9713C24.4813 38.8445 24.4539 38.7449 24.3263 38.672L24.1321 38.6065L23.8547 38.51L19.0683 36.8869ZM27.9395 35.4953L27.057 36.6088C26.9589 36.7327 26.8644 36.8018 26.7734 36.8165C26.6823 36.8313 26.61 36.8178 26.5565 36.7762C26.4495 36.6929 26.3866 36.5723 26.3676 36.4145C26.3485 36.2567 26.2851 36.1002 26.1753 35.9431L19.1257 28.3063L18.7505 27.9066C18.62 27.762 18.6318 27.5925 18.7857 27.3982L19.311 26.7354C19.395 26.6293 19.5023 26.5807 19.6325 26.5892C19.7627 26.5978 19.9824 26.6798 20.2919 26.835L29.6215 31.595C29.7786 31.6744 29.9432 31.7029 30.1183 31.6822C30.2757 31.6475 30.4122 31.6752 30.528 31.7655C30.5992 31.8211 30.6293 31.9016 30.6178 32.0069L30.4821 32.287L29.2632 33.8248C29.0811 34.0545 28.9144 34.1104 28.7607 33.9906C28.6714 33.9213 28.6093 33.7904 28.5783 33.6021C28.5475 33.4137 28.4655 33.2533 28.3369 33.1245L27.9429 32.903C27.7524 32.7975 27.611 32.7444 27.5222 32.7468C27.4338 32.7494 27.3406 32.8125 27.2425 32.9361L26.5596 33.7976C26.4336 33.9568 26.4271 34.1195 26.5422 34.2882C26.6551 34.4548 26.8031 34.6092 26.9837 34.75C27.0907 34.8333 27.2211 34.8778 27.3774 34.8853C27.6908 34.8721 27.8941 34.9018 27.9833 34.9711C28.0548 35.0268 28.0869 35.109 28.0754 35.2143L27.9395 35.4953ZM25.3327 31.581L23.8414 30.8158C23.5659 30.6906 23.3895 30.6494 23.3117 30.6926C23.2697 30.7457 23.3553 30.9017 23.5698 31.1583L24.6697 32.3903L25.1777 32.7861C25.4005 32.9597 25.5908 32.9473 25.7466 32.7507L25.9918 32.4412C26.1335 32.2622 26.0806 32.0744 25.8311 31.8801L25.5636 31.6718L25.3327 31.581ZM30.516 30.5196C30.6199 30.6383 30.6687 30.7713 30.6582 30.9141C30.6747 31.2419 30.7128 31.4398 30.772 31.5078C30.8166 31.5588 30.8829 31.5875 30.9708 31.5937C31.0588 31.5999 31.1712 31.5443 31.3085 31.4263L32.7995 30.146L32.9863 29.8963C33.0176 29.7949 33.0038 29.7103 32.9443 29.6423C32.8681 29.5551 32.6761 29.4896 32.3661 29.4438C32.2139 29.4071 32.0944 29.3388 32.0052 29.2369L31.3223 28.4553C30.9938 28.0794 30.8012 27.7987 30.7407 27.6091C30.73 27.4251 30.7801 27.2852 30.8915 27.1895C31.7226 26.4757 32.0816 25.6248 31.9681 24.6365C31.8815 23.8335 31.5154 23.0625 30.8696 22.3234C30.3947 21.7796 29.8697 21.3419 29.2927 21.012C28.7179 20.6803 28.0987 20.4651 27.4369 20.3642C26.3125 20.2144 25.4666 20.3836 24.8967 20.8728L23.2687 22.2711C23.1124 22.4054 23.0424 22.5399 23.0565 22.6763L23.1458 22.7782C23.2274 22.8716 23.3402 22.9236 23.4842 22.9337C23.7942 22.9797 23.9938 23.0537 24.0849 23.1577L30.516 30.5196ZM26.0372 21.6337C26.2259 21.4717 26.6478 21.6073 27.3038 22.0404C27.9596 22.4735 28.6143 23.0638 29.2674 23.8112C29.6904 24.2955 29.9894 24.7749 30.164 25.2494C30.3078 25.7058 30.2684 26.0297 30.0455 26.2211C29.8913 26.3536 29.7348 26.3802 29.5756 26.3013C29.4167 26.2221 29.1701 25.9916 28.8361 25.6093L26.4647 22.8949C26.1382 22.5211 25.9454 22.2404 25.8867 22.0531C25.8755 21.8691 25.9258 21.7294 26.0372 21.6337ZM35.3337 17.1091C35.0631 16.6903 34.493 16.0482 33.6217 15.1799C33.4307 14.9678 33.2627 14.854 33.1215 14.8436C32.9801 14.8333 32.8665 14.8555 32.7807 14.9101C32.7042 14.9587 32.6432 15.041 32.597 15.1572C32.5508 15.2733 32.4991 15.3494 32.442 15.3859L32.21 15.4332C32.018 15.4485 31.8598 15.4956 31.7359 15.5745C30.8959 16.1082 30.5943 17.1045 30.8304 18.5631C31.0666 20.0217 31.6957 21.5411 32.7173 23.1213C33.9348 25.0041 35.0764 26.1344 36.1419 26.5119C36.9262 26.7877 37.7336 26.6617 38.5639 26.1339C39.1176 25.7821 39.4399 25.2499 39.5315 24.5377C39.6121 23.7253 39.3926 22.9171 38.8723 22.1128C38.5114 21.5545 38.16 21.167 37.8179 20.9507C37.4758 20.7342 37.2047 20.6897 37.0043 20.8169C36.842 20.9202 36.7731 21.0738 36.7976 21.2787C36.8221 21.4834 37.0027 21.8458 37.3393 22.3663C37.5045 22.622 37.6493 22.877 37.7738 23.1319C37.8982 23.3867 37.9932 23.6066 38.059 23.7916C38.2122 24.3618 38.1266 24.7498 37.802 24.9563C37.5157 25.1382 37.1668 25.0362 36.7556 24.65C36.3443 24.264 35.591 23.224 34.4959 21.5302C34.3857 21.3597 34.1804 21.0164 33.88 20.4998C33.5797 19.9831 33.3529 19.6064 33.2 19.37C33.103 19.178 32.9741 18.9162 32.8133 18.5845C32.6526 18.2529 32.5302 17.9802 32.4462 17.7668C32.2194 17.083 32.1967 16.6836 32.3783 16.5682C32.5693 16.4468 32.8493 16.5157 33.2188 16.7749L33.9312 17.2832L34.4998 17.6628C34.911 17.8822 35.2025 17.9373 35.3742 17.8281C35.4478 17.7546 35.4827 17.6522 35.4788 17.5213C35.4488 17.3497 35.4011 17.2131 35.3337 17.1091ZM42.7254 14.1614C42.5704 14.2307 42.3183 14.128 41.9689 13.8528L41.4757 13.4262C41.0786 13.0738 40.8304 12.8704 40.731 12.8164C40.6525 12.753 40.5648 12.7245 40.468 12.7307C40.313 12.8003 40.2269 12.9253 40.2096 13.1056C40.212 13.302 40.3148 13.6228 40.5157 14.0631L44.016 21.7392C44.0721 21.8621 44.167 21.9615 44.3009 22.037C44.5848 22.1687 44.7516 22.2885 44.7983 22.3907C44.8356 22.4727 44.8246 22.5578 44.7654 22.646L44.5144 22.8325L42.7016 23.6451C42.4331 23.7654 42.2591 23.7385 42.1797 23.5644C42.1283 23.4516 42.133 23.3047 42.1933 23.1236C42.2536 22.9422 42.2562 22.75 42.2032 22.5516L38.7027 14.8757C38.4914 14.4121 38.3199 14.1252 38.1876 14.0119C38.0551 13.8986 37.9011 13.8812 37.7255 13.9601C37.6738 13.9834 37.6295 14.0771 37.5927 14.2419L37.595 15.1473L37.5903 16.0376C37.5577 16.348 37.4693 16.5358 37.3247 16.6008C37.2626 16.6285 37.1467 16.6065 36.9771 16.5345L36.6797 16.1685L36.5325 15.8459C36.4905 15.7538 36.4485 15.6614 36.4065 15.5693C36.3629 15.3916 36.325 15.2542 36.2935 15.1574L36.1116 14.5544L35.9428 13.816C35.8757 13.5871 35.8577 13.4316 35.8887 13.3498C35.9198 13.2681 36.0161 13.1786 36.1719 13.0841L36.5703 13.0166C36.6773 13.0058 36.8031 12.968 36.9479 12.903L40.1655 11.4607C40.3307 11.3868 40.4609 11.3037 40.5559 11.2119L40.8153 11.0031C40.9082 10.9614 41.0026 10.9501 41.1007 10.9676C41.1952 10.9839 41.3353 11.0998 41.5185 11.3107L42.3248 12.5468L42.8086 13.4031C42.8832 13.5669 42.9051 13.7237 42.8738 13.8735C42.8678 14.0235 42.8183 14.1198 42.7254 14.1614ZM47.0186 20.6418C47.0314 20.8464 46.9907 21.0348 46.8957 21.2006C46.8004 21.3664 46.7671 21.5098 46.795 21.6301C46.8104 21.6958 46.8581 21.7511 46.9385 21.7962C47.0189 21.8412 47.1363 21.8461 47.2908 21.8106L49.5278 21.2989C50.4888 21.079 51.2169 20.6586 51.7116 20.0351C52.3141 19.2743 52.4769 18.3 52.2009 17.1143C52.1575 16.9283 52.109 16.7692 52.055 16.6372C52.0005 16.5027 51.9261 16.3581 51.8314 16.2011C51.7366 16.044 51.6531 15.9103 51.5809 15.7998C51.4653 15.6531 51.3591 15.5217 51.2615 15.4029C50.8782 15.0061 50.349 14.6312 49.6726 14.2755C49.5774 14.2165 49.5223 14.1542 49.5069 14.0884L49.5401 13.8559L50.0536 13.0634C50.2057 12.717 50.218 12.2702 50.0904 11.7226C49.8968 10.8903 49.45 10.2715 48.7507 9.86633C48.0514 9.46119 47.2545 9.36081 46.3597 9.56571L44.5371 9.98274C44.2498 10.0485 44.1292 10.1799 44.1751 10.377C44.2031 10.4973 44.2785 10.5956 44.4009 10.6714C44.632 10.8148 44.768 10.9739 44.8095 11.1518L47.0186 20.6418ZM47.1973 10.4645C47.3299 10.4342 47.5123 10.6174 47.7443 11.0142C47.9277 11.3529 48.0704 11.7412 48.1725 12.1792C48.2591 12.5515 48.2956 12.8834 48.2821 13.1749C48.2064 13.3998 48.0858 13.5312 47.9201 13.5692C47.7432 13.6096 47.5992 13.5648 47.4875 13.4347C47.3758 13.3046 47.2626 12.9931 47.1478 12.5002L46.9795 11.7774C46.8673 11.2954 46.8294 10.9581 46.8659 10.7653C46.9434 10.5977 47.0538 10.4973 47.1973 10.4645ZM48.2604 15.0314C48.4668 15.0188 48.7244 15.2252 49.0333 15.6534C49.4445 16.2197 49.7425 16.9011 49.9294 17.7034C50.0703 18.3085 50.1039 18.8285 50.0301 19.2606C49.9213 19.8421 49.7339 20.1616 49.4686 20.2224C49.2697 20.268 49.1186 20.2188 49.0156 20.0752C48.9122 19.9316 48.8039 19.6163 48.6917 19.1343L48.0391 16.3307C47.9295 15.8598 47.8922 15.5251 47.9288 15.3321C48.0065 15.1647 48.1169 15.0643 48.2604 15.0314ZM57.0528 20.2429L53.6107 20.5024C53.4526 20.5143 53.337 20.492 53.2644 20.4356C53.1919 20.3792 53.153 20.3171 53.1478 20.2499C53.1384 20.1267 53.1932 19.9901 53.3125 19.8401C53.4317 19.6903 53.5003 19.5102 53.5189 19.3061L52.7741 9.59494C52.76 9.41281 52.6499 9.23508 52.443 9.05915C52.3334 8.96602 52.2742 8.85762 52.2645 8.73448C52.2491 8.53268 52.3882 8.42092 52.682 8.39867L56.141 8.13789C56.3219 8.12418 56.4784 8.08977 56.6107 8.03493L56.9095 7.92782C57.0113 7.92006 57.1099 7.94645 57.2057 8.00699C57.2761 8.03544 57.3617 8.18679 57.4622 8.46102L57.9681 9.94471C58.1036 10.3742 58.1779 10.6784 58.1918 10.8577C58.2038 11.0147 58.1785 11.1293 58.1158 11.2015L57.8862 11.3203C57.7166 11.3329 57.5198 11.2126 57.2957 10.9589L56.725 10.1902C56.3905 9.83218 56.1123 9.57709 55.8903 9.42471C55.6682 9.27233 55.4556 9.20377 55.252 9.21904C55.0597 9.23352 54.9209 9.35124 54.8356 9.57166C54.798 9.82234 54.7928 10.1271 54.8204 10.4859L54.9042 11.5787C54.942 12.0718 55.001 12.3973 55.0814 12.5546C55.1617 12.7119 55.3034 12.783 55.507 12.7675C55.6087 12.76 55.7653 12.5789 55.9769 12.2247C56.0656 12.049 56.1836 11.9554 56.3305 11.9445C56.4322 11.937 56.5379 11.9826 56.648 12.0811C56.7576 12.1771 56.886 12.3675 57.0329 12.6524L57.5371 13.6655C57.7816 14.1852 57.9235 14.5521 57.9624 14.7634C57.9744 14.9202 57.9491 15.0348 57.8865 15.1072L57.6568 15.226C57.5211 15.2363 57.3557 15.1528 57.16 14.9761L56.588 14.4105L56.1345 14.0559C55.9547 13.934 55.7742 13.8802 55.5933 13.8936C55.4464 13.9048 55.3219 13.9873 55.2202 14.1415C55.1547 14.3267 55.1411 14.6687 55.179 15.1618L55.3963 17.9973C55.4342 18.4904 55.4934 18.8184 55.5738 18.976C55.6541 19.1333 55.7961 19.2044 55.9993 19.1891C56.2592 19.1695 56.503 19.0864 56.7302 18.9366C56.9578 18.79 57.2305 18.4932 57.5491 18.0493L57.8611 17.448C58.0657 17.0015 58.2865 16.7679 58.5239 16.75C58.7614 16.7322 58.8913 16.8716 58.914 17.1658C58.9357 17.4488 58.895 17.8829 58.7924 18.4712L58.5576 19.6331L58.4428 20.1378C58.3867 20.2972 58.2682 20.3821 58.0876 20.3986C58.031 20.4002 57.977 20.4012 57.9253 20.394C57.8737 20.3867 57.7834 20.3595 57.6545 20.3073L57.0528 20.2429ZM65.1127 20.7678L63.1559 20.5212C62.9758 20.4985 62.8589 20.4527 62.8049 20.3836C62.7509 20.3145 62.7287 20.2436 62.7371 20.1769C62.7485 20.0876 62.8722 19.9249 63.1076 19.6939C63.2221 19.6036 63.2892 19.4815 63.3096 19.3226L63.7589 15.8161C63.8239 15.3088 63.8299 14.9725 63.7769 14.8071C63.7242 14.639 63.5963 14.5438 63.3941 14.5182L63.1243 14.4843C62.9782 14.4659 62.8393 14.522 62.7081 14.6555C62.6066 14.824 62.5239 15.1564 62.4602 15.6526L62.0109 19.1591C61.9934 19.2957 62.0218 19.4297 62.0957 19.5663C62.2682 19.8261 62.3467 20.0144 62.3326 20.1257C62.3211 20.2149 62.2666 20.2845 62.1695 20.3288L61.8572 20.3575L59.9004 20.1109C59.7203 20.0882 59.6034 20.0424 59.5494 19.9733C59.4954 19.9042 59.4727 19.8362 59.4813 19.7692C59.4928 19.6799 59.6162 19.5198 59.8513 19.289C59.9654 19.2013 60.0329 19.0769 60.0528 18.9206L61.2909 9.25914C61.3084 9.12254 61.2309 8.92592 61.0584 8.66618C60.9702 8.55312 60.9337 8.43515 60.9496 8.31252L60.9669 8.17877C61.0597 8.0771 61.2103 8.03958 61.4157 8.06545L63.3952 8.31485C63.499 8.32804 63.5856 8.36711 63.6571 8.43282C63.7315 8.49879 63.7785 8.57847 63.8009 8.67187C63.7842 8.80277 63.7025 8.92566 63.5569 9.03768C63.4111 9.14944 63.3085 9.30389 63.2495 9.49741L62.9354 11.9476C62.8712 12.4493 62.8691 12.7778 62.9283 12.938C62.9878 13.0984 63.1076 13.19 63.2874 13.2127L63.5572 13.2469C63.726 13.2681 63.8695 13.2182 63.9877 13.0971C64.0893 12.9287 64.1712 12.6019 64.2341 12.1111L64.5482 9.66091C64.5649 9.53 64.4874 9.33313 64.315 9.07338C64.2268 8.96033 64.1902 8.84236 64.2056 8.72257L64.2229 8.58882C64.316 8.48715 64.4666 8.44964 64.6717 8.47551L66.6509 8.7249C66.755 8.73784 66.8414 8.77716 66.9129 8.84287C66.9872 8.90884 67.0342 8.98853 67.0566 9.08192C67.0394 9.21567 66.958 9.33856 66.8122 9.45058C66.6665 9.5626 66.5637 9.71679 66.504 9.916L65.2658 19.5775C65.2486 19.7112 65.2768 19.8478 65.3512 19.9818C65.5236 20.2416 65.6027 20.4271 65.5883 20.5386C65.5769 20.6278 65.5226 20.6946 65.4255 20.7391L65.1127 20.7678ZM71.4459 22.3839L71.759 22.4021C71.8616 22.3726 71.9255 22.3146 71.9503 22.2279C71.9814 22.1198 71.9313 21.9247 71.8 21.6422C71.7468 21.4986 71.7397 21.3595 71.7768 21.2296L74.4603 11.861C74.5495 11.6729 74.6743 11.5358 74.8353 11.4465C74.9963 11.3573 75.0954 11.2481 75.1325 11.1182C75.1244 11.0225 75.0902 10.9369 75.0265 10.8605C74.9657 10.785 74.8861 10.7335 74.7854 10.7051L72.8659 10.1646C72.6668 10.1085 72.5124 10.1235 72.4051 10.2101L72.3681 10.34C72.3347 10.4562 72.3529 10.578 72.4231 10.703C72.5544 10.9852 72.6014 11.1914 72.5651 11.3185L71.8846 13.6944C71.7483 14.1702 71.6181 14.4812 71.4921 14.6325C71.3567 14.7347 71.2074 14.7626 71.0438 14.7166L70.7821 14.6429C70.6075 14.5937 70.5031 14.4856 70.4684 14.3179C70.434 14.1505 70.4854 13.8261 70.6247 13.3397L71.3053 10.9638C71.3929 10.7811 71.5177 10.6437 71.6787 10.5547C71.8397 10.4658 71.9388 10.3563 71.9751 10.2293C71.9673 10.1336 71.9328 10.0479 71.8692 9.97162C71.8084 9.89608 71.7288 9.84434 71.6281 9.81614L69.7086 9.27569C69.5095 9.21981 69.355 9.23456 69.2478 9.32123L69.2104 9.45084C69.1765 9.56984 69.1945 9.6917 69.2647 9.81665C69.396 10.0989 69.4429 10.3051 69.4051 10.4376L66.7219 19.8067C66.6786 19.958 66.593 20.0713 66.4669 20.1409C66.1995 20.3342 66.0533 20.4744 66.0286 20.5608C66.01 20.6258 66.022 20.6964 66.0651 20.7727C66.1079 20.849 66.2167 20.9119 66.3913 20.961L68.2888 21.4953L68.6019 21.5134C68.7048 21.4839 68.7692 21.4231 68.794 21.3367C68.825 21.2285 68.7755 21.0306 68.6445 20.7484C68.592 20.6022 68.5839 20.4656 68.622 20.3332L69.5959 16.9327C69.7336 16.4515 69.8657 16.1351 69.9914 15.9837C70.1415 15.8712 70.2871 15.8363 70.4288 15.8761L70.6905 15.9499C70.8867 16.0052 70.9987 16.1183 71.0255 16.2924C71.0529 16.4637 70.9963 16.7953 70.8554 17.2874L69.8816 20.6878C69.8375 20.842 69.7527 20.9525 69.6259 21.0247C69.3584 21.2179 69.2115 21.3607 69.1867 21.4472C69.1682 21.5121 69.1797 21.5853 69.2225 21.6616C69.2655 21.7379 69.3741 21.8006 69.5486 21.8497L71.4459 22.3839ZM73.8695 23.3751L72.5982 22.7296C72.4571 22.6579 72.3702 22.579 72.3381 22.4934C72.306 22.4075 72.3055 22.3348 72.3365 22.2748C72.3983 22.1547 72.5059 22.0704 72.6585 22.0215C72.8111 21.9729 72.9539 21.881 73.0883 21.7442L79.2981 13.4218L79.6217 12.9799C79.7399 12.8252 79.9097 12.8042 80.1318 12.917L80.8885 13.3012C81.0096 13.3628 81.0785 13.4577 81.0949 13.586C81.1114 13.7144 81.0725 13.9441 80.978 14.2747L78.0526 24.265C78.0041 24.4329 78.0075 24.599 78.0618 24.7654C78.1262 24.9118 78.1249 25.0499 78.0576 25.1801C78.0164 25.26 77.9423 25.3048 77.8358 25.3136L77.5323 25.2352L75.7767 24.3437C75.5145 24.2104 75.4271 24.0588 75.5163 23.8863C75.568 23.7861 75.6854 23.7005 75.866 23.6345C76.0465 23.5683 76.1895 23.4578 76.2926 23.308L76.4361 22.8822C76.504 22.6768 76.5295 22.5288 76.5102 22.4432C76.4907 22.3576 76.4103 22.2789 76.2691 22.2072L75.2854 21.7077C75.1038 21.6156 74.9412 21.6402 74.7966 21.7848C74.6534 21.9268 74.5286 22.1001 74.424 22.3027C74.3619 22.4227 74.3429 22.5583 74.3656 22.7117C74.4386 23.0142 74.448 23.2178 74.3964 23.3179C74.3551 23.3978 74.2797 23.4449 74.1733 23.454L73.8695 23.3751ZM77.2453 20.0887L77.7171 18.4909C77.7883 18.1988 77.7954 18.019 77.7377 17.952C77.6771 17.9212 77.5391 18.0343 77.3262 18.2925L76.3171 19.5987L76.0225 20.1689C75.8934 20.419 75.9422 20.6017 76.1668 20.7158L76.5199 20.8951C76.7242 20.9988 76.9001 20.9114 77.0446 20.6312L77.1996 20.3311L77.2453 20.0887ZM89.8753 18.8955L88.0738 17.6253C87.5195 17.2343 86.7304 17.1125 85.7068 17.2597C84.4459 17.4465 83.4084 18.108 82.5935 19.2437C82.2321 19.7474 82.0166 20.2713 81.9464 20.8149C81.8869 21.242 81.9135 21.6606 82.0239 22.0694C82.0544 22.2013 82.0369 22.3131 81.9712 22.4046L81.8449 22.5226L79.0927 24.9682C79.0468 25.0323 78.9312 25.0818 78.7478 25.1146C78.5643 25.1472 78.4373 25.2129 78.3634 25.3159C78.3225 25.3731 78.312 25.4553 78.329 25.5676L78.5667 25.818L79.9525 26.7952C80.0817 26.8862 80.1861 26.9253 80.2651 26.9121C80.3327 26.915 80.4092 26.886 80.4958 26.8231C80.5762 26.7108 80.5997 26.5618 80.5694 26.3714C80.548 26.2459 80.5647 26.1163 80.6174 25.9846L80.8677 25.7231L82.6097 24.2205C82.849 24.0032 83.0053 23.8824 83.0783 23.8581C83.1514 23.8337 83.2487 23.8436 83.3701 23.8878C83.4739 23.961 83.5026 24.1054 83.4583 24.3224C83.3583 24.5589 83.2041 24.8225 82.9922 25.118L81.8754 26.6751C81.7966 26.7851 81.6823 26.8666 81.5362 26.9152C81.2319 26.9902 81.0469 27.0738 80.9796 27.1677C80.9402 27.2226 80.9298 27.3051 80.9485 27.4148L81.1724 27.6554L82.7801 28.7888C82.9095 28.8801 83.0199 28.92 83.1115 28.9086C83.2031 28.8972 83.2686 28.8641 83.308 28.8092C83.3802 28.7086 83.4042 28.5635 83.3802 28.3741C83.356 28.1847 83.3909 27.9953 83.4815 27.8111L89.1741 19.8742C89.2809 19.7255 89.468 19.6295 89.7365 19.5847C89.8787 19.5609 89.9859 19.4986 90.0582 19.3979C90.1764 19.2321 90.1153 19.065 89.8753 18.8955ZM87.2113 18.3621C87.3314 18.4467 87.3951 18.5812 87.4018 18.7654C87.3614 18.9576 87.1967 19.2551 86.9076 19.6582L85.1043 22.1726C84.8021 22.594 84.5743 22.8437 84.4209 22.9218C84.2674 22.9999 84.1169 22.9867 83.9692 22.8825C83.7474 22.7262 83.6482 22.4768 83.6712 22.1345C83.7322 21.681 84.0023 21.1199 84.4819 20.4514C85.0863 19.6088 85.6755 19.0104 86.2493 18.6565C86.7244 18.3429 87.0451 18.2449 87.2113 18.3621ZM87.2591 33.1938L86.3766 32.0803C86.2785 31.9567 86.2328 31.8491 86.2401 31.758C86.2472 31.6667 86.2775 31.6004 86.3309 31.5588C86.4379 31.4755 86.571 31.4431 86.7302 31.462C86.8894 31.4809 87.0579 31.4569 87.2377 31.3883L96.3886 26.4027L96.869 26.1357C97.0415 26.0441 97.2048 26.0956 97.359 26.2899L97.8843 26.9527C97.9683 27.0588 97.9908 27.1734 97.9516 27.2968C97.9125 27.4202 97.7802 27.6127 97.5547 27.874L90.6839 35.7361C90.5691 35.8686 90.5021 36.0207 90.4812 36.1943C90.4781 36.3539 90.4186 36.4789 90.3024 36.5692C90.2312 36.6248 90.1451 36.6346 90.0446 36.5987L89.802 36.4018L88.5831 34.864C88.401 34.6343 88.3856 34.4605 88.5395 34.3407C88.6288 34.2713 88.7715 34.2421 88.9636 34.2571C89.1556 34.2719 89.332 34.2307 89.4886 34.1373L89.7986 33.8101C89.947 33.6517 90.0324 33.5278 90.0509 33.4419C90.0694 33.356 90.0295 33.2513 89.9314 33.1276L89.2485 32.2658C89.1225 32.1067 88.9643 32.062 88.772 32.1331C88.5821 32.2024 88.3955 32.3085 88.2152 32.449C88.1082 32.5323 88.0338 32.6474 87.9895 32.7964C87.9284 33.1012 87.8512 33.2903 87.7619 33.3597C87.6907 33.4153 87.6025 33.4267 87.5018 33.3907L87.2591 33.1938ZM91.7118 31.6079L92.8142 30.3522C93.0021 30.1165 93.0841 29.9561 93.06 29.871C93.018 29.8179 92.845 29.8635 92.5426 30.0096L91.0751 30.7777L90.567 31.1736C90.3442 31.3472 90.3116 31.5334 90.4674 31.73L90.7126 32.0395C90.8546 32.2185 91.0511 32.2118 91.3008 32.0172L91.5683 31.809L91.7118 31.6079ZM91.5255 36.8157C91.3879 36.8941 91.247 36.9161 91.1077 36.8789C90.78 36.8323 90.5767 36.8315 90.4981 36.8763C90.4392 36.9099 90.3982 36.9689 90.3752 37.0532C90.3523 37.1376 90.3859 37.2579 90.4765 37.4136L91.4597 39.1089L91.6713 39.3384C91.7655 39.3883 91.8522 39.3909 91.9307 39.3462C92.0291 39.29 92.1306 39.1157 92.2352 38.8225C92.3007 38.6815 92.391 38.5781 92.5089 38.5108L99.9635 34.2613C100.398 34.0134 100.713 33.8794 100.91 33.8579C101.094 33.8825 101.223 33.958 101.296 34.0848L101.432 34.3187C101.534 34.4941 101.534 34.6527 101.433 34.7944C101.332 34.9362 101.061 35.1331 100.616 35.3866L93.1616 39.6362C93.024 39.7146 92.8855 39.7353 92.7438 39.6993C92.416 39.6527 92.2128 39.652 92.1342 39.6967C92.0753 39.7304 92.0343 39.7893 92.0113 39.8737C91.9884 39.958 92.022 40.0783 92.1126 40.2341L93.0958 41.9294L93.3074 42.1588C93.4016 42.2088 93.4882 42.2114 93.5668 42.1666C93.6652 42.1105 93.769 41.9346 93.8737 41.6417C93.9365 41.5023 94.0271 41.3988 94.1448 41.3315L102.678 36.467C102.869 36.3969 103.053 36.3863 103.231 36.4339C103.406 36.4828 103.552 36.4745 103.67 36.4072C103.729 36.3345 103.764 36.2494 103.772 36.1547C103.781 36.0585 103.759 35.9641 103.708 35.8764L101.075 31.3358C100.972 31.158 100.852 31.0641 100.714 31.052L100.596 31.1192C100.488 31.1808 100.415 31.2807 100.378 31.4188C100.273 31.7119 100.162 31.892 100.044 31.9593L91.5255 36.8157Z" fill="#FFEEBD"/>
<path fill-rule="evenodd" clip-rule="evenodd" d="M103.711 45.7961C103.657 45.6364 103.784 45.3976 104.095 45.08L104.571 44.6352C104.964 44.2782 105.192 44.0531 105.257 43.9605C105.328 43.8891 105.365 43.8053 105.368 43.7093C105.314 43.5497 105.197 43.4524 105.017 43.4178C104.82 43.4009 104.488 43.4708 104.026 43.6258L95.9779 46.3259C95.849 46.3691 95.7399 46.4532 95.6509 46.5779C95.491 46.8451 95.3545 46.9978 95.247 47.0337C95.1611 47.0624 95.0768 47.0433 94.9939 46.9763L94.8313 46.7103L94.1936 44.8419C94.0991 44.5651 94.1432 44.3962 94.3259 44.3349C94.4441 44.2953 94.591 44.3142 94.7671 44.3915C94.943 44.4689 95.1358 44.4904 95.3401 44.4575L103.389 41.7574C103.874 41.5944 104.179 41.4534 104.306 41.3339C104.433 41.2143 104.465 41.064 104.404 40.8829C104.386 40.8296 104.296 40.7769 104.134 40.7243L103.225 40.6377L102.332 40.5458C102.023 40.4832 101.844 40.3774 101.793 40.2284C101.771 40.1645 101.804 40.0525 101.893 39.8921L102.29 39.6344L102.628 39.5211C102.725 39.4887 102.822 39.4561 102.918 39.4238C103.101 39.3982 103.242 39.3744 103.343 39.3527L103.966 39.2326L104.724 39.1387C104.96 39.095 105.118 39.0924 105.197 39.1312C105.276 39.17 105.356 39.2735 105.436 39.4367L105.465 39.8364C105.465 39.943 105.491 40.0708 105.542 40.2199L106.674 43.5362C106.732 43.7065 106.802 43.8431 106.885 43.9458L107.069 44.2221C107.102 44.3178 107.104 44.4122 107.077 44.5072C107.051 44.5988 106.921 44.7255 106.691 44.8857L105.371 45.5599L104.464 45.9531C104.292 46.0108 104.133 46.0167 103.986 45.9712C103.836 45.9503 103.744 45.892 103.711 45.7961ZM96.2388 52.9165L96.2346 53.5167C96.1952 53.6492 96.1772 53.741 96.1749 53.7927C96.1728 53.8445 96.1793 53.8975 96.1866 53.9534C96.2213 54.1298 96.3187 54.2382 96.4838 54.2776L97.0018 54.3399L98.1914 54.4548C98.7921 54.4969 99.2318 54.4933 99.5139 54.4434C99.8066 54.3914 99.9337 54.2491 99.8917 54.0168C99.85 53.7845 99.5932 53.5902 99.1245 53.4334L98.4897 53.1861C98.0122 52.9165 97.687 52.6774 97.5169 52.4676C97.3439 52.2583 97.2359 52.0265 97.1899 51.772C97.1542 51.5728 97.2111 51.4258 97.3609 51.3306C97.5106 51.2357 97.8339 51.1441 98.325 51.0572L101.148 50.5573C101.639 50.4704 101.984 50.4495 102.177 50.4952C102.341 50.5801 102.437 50.6947 102.463 50.8385C102.495 51.0155 102.459 51.1989 102.355 51.3886L102.044 51.8716L101.535 52.4927C101.377 52.7033 101.31 52.8751 101.334 53.0078L101.476 53.2223C101.555 53.2769 101.672 53.2901 101.829 53.2626C102.037 53.2029 102.39 53.0262 102.888 52.7326L103.854 52.1334C104.125 51.9598 104.303 51.8141 104.388 51.6962C104.476 51.5777 104.511 51.469 104.493 51.3694C104.467 51.2256 104.362 51.1187 104.176 51.0486C103.8 50.8755 103.603 50.7392 103.585 50.6396C103.549 50.4404 103.606 50.2932 103.755 50.1982C103.905 50.1033 104.226 50.0122 104.717 49.9253L105.805 49.7326C106.162 49.6694 106.468 49.6436 106.724 49.6555C106.954 49.7176 107.086 49.8425 107.119 50.0306C107.155 50.2298 107.108 50.4466 106.978 50.681C106.847 50.9154 106.619 51.2155 106.293 51.5813L105.58 52.2213C105.348 52.4679 105.247 52.6743 105.276 52.8402L105.419 53.0546C105.497 53.1092 105.615 53.1227 105.771 53.095C105.95 53.0634 106.248 52.9592 106.665 52.7827L108.103 52.1342C108.368 52.0074 108.511 51.9078 108.533 51.8354C108.584 51.735 108.601 51.6351 108.583 51.5355L108.445 51.2517C108.376 51.1267 108.326 50.9759 108.295 50.799L107.685 47.4132C107.633 47.1256 107.507 46.9996 107.306 47.035C107.183 47.0567 107.08 47.1263 106.998 47.2435C106.842 47.4652 106.675 47.5918 106.493 47.6241L96.8233 49.3362C96.6167 49.3386 96.429 49.2889 96.2667 49.1864C96.1044 49.084 95.9617 49.0436 95.8391 49.0654C95.772 49.0773 95.7138 49.1218 95.6645 49.1991C95.6152 49.2765 95.6042 49.3924 95.6321 49.5473L96.2388 52.9165ZM108.846 55.9436L108.796 57.9212C108.793 58.0252 108.763 58.1145 108.704 58.1916C108.645 58.2715 108.57 58.3258 108.479 58.3574C108.343 58.354 108.211 58.286 108.084 58.1535C107.957 58.0211 107.792 57.9354 107.589 57.8966L105.94 57.8552C105.781 57.8514 105.684 57.8827 105.649 57.9463L105.736 58.0609L107.22 59.1493C107.309 59.2217 107.472 59.2598 107.707 59.2655C107.832 59.2686 107.952 59.221 108.068 59.1227C108.184 59.0243 108.316 58.977 108.463 58.9806C108.531 58.9824 108.598 59.0176 108.664 59.087C108.731 59.156 108.762 59.2693 108.758 59.4266L108.72 60.9098C108.717 61.011 108.687 61.1002 108.628 61.1773C108.569 61.2544 108.494 61.309 108.403 61.3403C108.289 61.3375 108.188 61.2955 108.1 61.2146L107.867 60.9895L106.014 59.6277L105.71 59.5526L105.3 59.6098L97.4681 61.2179C97.3883 61.2384 97.2815 61.3116 97.1505 61.4376C97.0198 61.5636 96.8878 61.6249 96.7489 61.6215C96.6555 61.6192 96.583 61.5724 96.5258 61.481L96.4656 61.176L96.518 59.1198C96.5253 58.8277 96.6255 58.6841 96.821 58.6888C96.9486 58.6919 97.083 58.7599 97.2212 58.8929C97.3624 59.0231 97.5359 59.1089 97.7421 59.1477L98.0685 59.1335L103.281 58.0612C103.452 58.0317 103.539 57.9776 103.541 57.8964C103.543 57.8291 103.458 57.7931 103.288 57.7887L97.7664 57.6503C97.6304 57.647 97.4989 57.6886 97.3721 57.7753C97.126 57.9714 96.9478 58.0682 96.8345 58.0653C96.7437 58.063 96.6715 58.0162 96.6169 57.9251L96.5566 57.6201L96.6065 55.665C96.6112 55.4852 96.6454 55.3652 96.7093 55.3052C96.7732 55.2449 96.839 55.2156 96.9071 55.2174C96.9976 55.2198 97.1706 55.3251 97.4264 55.5341C97.5258 55.6376 97.6575 55.6917 97.8162 55.6955L107.636 55.9418C107.775 55.9452 107.965 55.849 108.208 55.6526C108.312 55.554 108.427 55.5062 108.552 55.5093L108.687 55.5126C108.799 55.5939 108.852 55.7385 108.846 55.9436ZM96.0872 63.8115L96.3382 62.4173C96.3661 62.2623 96.4168 62.1573 96.4901 62.1017C96.5634 62.0461 96.6336 62.0243 96.7007 62.0362C96.8345 62.06 96.9473 62.1369 97.0391 62.2673C97.131 62.3976 97.2609 62.5063 97.4324 62.5937L107.275 66.0491L107.796 66.2268C107.98 66.2935 108.049 66.4488 108.006 66.6922L107.856 67.5221C107.832 67.6549 107.761 67.748 107.642 67.801C107.523 67.8543 107.29 67.8843 106.943 67.8916L96.452 68.0377C96.2759 68.0409 96.1167 68.0926 95.9721 68.1925C95.8498 68.2965 95.7162 68.3355 95.5708 68.3099C95.4816 68.2941 95.4169 68.237 95.3772 68.1386L95.3639 67.8279L95.7107 65.9029C95.7626 65.6152 95.8832 65.4882 96.0757 65.5223C96.1874 65.542 96.3043 65.6284 96.4207 65.7803C96.5373 65.9321 96.6855 66.0356 96.8601 66.0894L97.3128 66.1011C97.5307 66.1055 97.681 66.0863 97.758 66.0428C97.835 65.9994 97.8874 65.9003 97.9151 65.7453L98.1095 64.6665C98.1452 64.4673 98.074 64.3206 97.8924 64.2257C97.7136 64.1313 97.5099 64.0637 97.2839 64.0236C97.15 63.9998 97.0138 64.0216 96.8721 64.0878C96.6018 64.2456 96.4082 64.3139 96.2965 64.2942C96.2072 64.2785 96.1399 64.2208 96.1 64.1225L96.0872 63.8115ZM100.244 66.0516L101.923 66.032C102.226 66.0144 102.401 65.9681 102.449 65.8938C102.461 65.8273 102.311 65.7296 102 65.6033L100.446 65.0282L99.8095 64.9157C99.5306 64.8662 99.3685 64.9661 99.3242 65.2121L99.2545 65.5994C99.214 65.8235 99.35 65.9645 99.6623 66.0198L99.9971 66.0791L100.244 66.0516Z" fill="#FFEEBD"/>
</g>
<defs>
<clipPath id="clip0">
<rect width="117" height="116" fill="white"/>
</clipPath>
</defs>
</svg>
