<svg width="59" height="59" viewBox="0 0 59 59" fill="none" xmlns="http://www.w3.org/2000/svg">
<path d="M52.4403 21.2738L58.6626 15.0516C58.9191 14.7955 59.0398 14.4332 58.9884 14.0744C58.9376 13.7156 58.7202 13.4014 58.4024 13.2268L50.922 9.11932C50.3643 8.81323 49.6639 9.01714 49.3574 9.57485C49.0513 10.133 49.2547 10.8334 49.8129 11.1395L55.9473 14.5079L50.6074 19.8474L31.4015 9.30117L36.741 3.96168L42.1386 6.92581C42.6963 7.2319 43.3971 7.02844 43.7032 6.47028C44.0098 5.91256 43.8059 5.2117 43.2477 4.90561L37.0921 1.5251C36.6429 1.27843 36.0847 1.3581 35.7228 1.72046L29.5002 7.94312L23.2775 1.72046C22.9151 1.3581 22.357 1.27888 21.9082 1.5251L0.597927 13.2268C0.280132 13.4014 0.0627174 13.7152 0.0118521 14.0744C-0.0394631 14.4332 0.0811729 14.7955 0.33775 15.0516L6.55996 21.2738L0.33775 27.4956C0.0811729 27.7522 -0.0394631 28.1141 0.0118521 28.4733C0.0627174 28.8321 0.280132 29.1462 0.597927 29.3204L7.03755 32.8567V44.6763C7.03755 45.0972 7.26667 45.4843 7.63533 45.6869L28.9456 57.3881C29.1184 57.4831 29.3093 57.5304 29.5002 57.5304C29.691 57.5304 29.8819 57.4831 30.0547 57.3881L51.365 45.6869C51.7336 45.4843 51.9628 45.0972 51.9628 44.6763V32.8567L58.4024 29.3209C58.7202 29.1462 58.9376 28.8321 58.9884 28.4733C59.0398 28.1145 58.9191 27.7522 58.6626 27.4961L52.4403 21.2738ZM29.5002 31.6602L10.5842 21.2734L29.5002 10.8861L48.4161 21.2734L29.5002 31.6602ZM22.2597 3.96168L27.5988 9.30117L8.3929 19.8474L3.05341 14.5079L22.2597 3.96168ZM8.3938 22.6999L27.5997 33.2461L22.2597 38.586L3.05341 28.0398L8.3938 22.6999ZM49.6581 43.9948L30.6525 54.4307V42.6512C30.6525 42.0147 30.1366 41.4988 29.5002 41.4988C28.8637 41.4988 28.3478 42.0147 28.3478 42.6512V54.4307L9.34224 43.9948V34.1225L21.9082 41.0226C22.0824 41.118 22.2732 41.1648 22.4623 41.1648C22.7607 41.1648 23.056 41.0487 23.2775 40.8272L29.5002 34.6046L35.7228 40.8272C35.9443 41.0491 36.2396 41.1648 36.538 41.1648C36.7271 41.1648 36.9179 41.118 37.0921 41.0226L49.6581 34.1225V43.9948ZM36.741 38.586L31.4011 33.2456L50.6069 22.6999L55.9473 28.0394L36.741 38.586Z" fill="#006771"/>
<path d="M46.647 9.23926C46.9499 9.23926 47.2461 9.11592 47.4617 8.90121C47.676 8.68694 47.7993 8.38985 47.7993 8.08691C47.7993 7.78352 47.676 7.48643 47.4617 7.27217C47.2475 7.05746 46.9499 6.93457 46.647 6.93457C46.3427 6.93457 46.0465 7.05746 45.8322 7.27217C45.6166 7.48643 45.4946 7.78352 45.4946 8.08691C45.4946 8.38985 45.6166 8.68694 45.8322 8.90121C46.0465 9.11592 46.344 9.23926 46.647 9.23926Z" fill="#006771"/>
<path d="M29.5 37.6729C29.1971 37.6729 28.8995 37.7957 28.6853 38.0105C28.471 38.2256 28.3477 38.5218 28.3477 38.8252C28.3477 39.129 28.471 39.4252 28.6853 39.6408C28.8995 39.8551 29.1971 39.9775 29.5 39.9775C29.8029 39.9775 30.1005 39.8551 30.3147 39.6408C30.529 39.4252 30.6523 39.129 30.6523 38.8252C30.6523 38.5218 30.529 38.2256 30.3147 38.0105C30.1005 37.7957 29.8029 37.6729 29.5 37.6729Z" fill="#006771"/>
</svg>
