<svg width="65" height="65" viewBox="0 0 65 65" fill="none" xmlns="http://www.w3.org/2000/svg">
<g clip-path="url(#clip0)">
<path d="M64.8549 44.6605C64.4041 43.0173 63.0263 41.7946 61.3411 41.5418V16.8421H63.4935C64.0878 16.8421 64.5696 16.3603 64.5696 15.766V5.00438C64.5696 4.40955 64.0878 3.92822 63.4935 3.92822H16.1424C15.5481 3.92822 15.0662 4.40955 15.0662 5.00438V15.766C15.0662 16.3603 15.5481 16.8421 16.1424 16.8421H18.2947V38.3653H17.2186C14.5476 38.359 11.9313 39.1247 9.68544 40.5702V35.1369C9.68544 34.542 9.20359 34.0607 8.60928 34.0607H1.07616C0.481855 34.0607 0 34.542 0 35.1369V59.8886C0 60.4829 0.481855 60.9647 1.07616 60.9647H8.60928C9.20359 60.9647 9.68544 60.4829 9.68544 59.8886V54.4557C11.9318 55.9002 14.5476 56.6659 17.2186 56.6601H34.889C36.1134 56.658 37.3319 56.4972 38.5148 56.1819L61.8146 49.9404C64.1072 49.3156 65.4655 46.9573 64.8549 44.6605ZM17.2186 6.08054H62.4173V14.6898H17.2186V6.08054ZM20.447 16.8421H59.1888V41.7268L46.6989 45.0761C46.1845 43.8497 45.1352 42.9285 43.8525 42.577L29.3522 38.688C28.5356 38.4731 27.6948 38.3643 26.8504 38.3653H20.447V16.8421ZM7.53312 58.8124H2.15232V36.213H7.53312V58.8124ZM61.256 47.8611L37.9604 54.1026C36.9583 54.3701 35.9263 54.5062 34.889 54.5078H17.2186C14.6564 54.5135 12.162 53.6822 10.1158 52.14L9.68544 51.8174V43.2081L10.1158 42.8849C12.162 41.3427 14.6564 40.5108 17.2186 40.5177H26.8504C27.5078 40.5171 28.163 40.6023 28.7994 40.7704L43.295 44.6563C44.1515 44.8922 44.7784 45.6263 44.8761 46.5096C44.8877 46.5537 44.9018 46.5973 44.9192 46.6399C44.9066 46.6861 44.8971 46.7329 44.8908 46.7807C44.8919 46.9557 44.8682 47.1302 44.8199 47.2983C44.5666 48.2363 43.7169 48.8884 42.7453 48.89C42.5556 48.8915 42.3675 48.8674 42.1846 48.819L33.0373 46.3661C32.6621 46.2547 32.2559 46.3556 31.9764 46.6299C31.6973 46.9042 31.5886 47.3083 31.6931 47.6856C31.7977 48.0624 32.0988 48.3535 32.4798 48.4444L41.6271 50.8983C41.9923 50.9945 42.3691 51.0428 42.7474 51.0423C44.6822 51.0412 46.3779 49.747 46.8892 47.8805C46.9491 47.6646 46.9895 47.4439 47.0111 47.2211L60.1305 43.7031C60.224 43.6794 60.3254 43.6552 60.421 43.6395C61.4925 43.5013 62.4998 44.1786 62.7767 45.2222C62.8251 45.404 62.8492 45.5916 62.8477 45.7797C62.8492 46.7539 62.1966 47.6073 61.256 47.8611Z" fill="#006771"/>
<path d="M34.437 21.147H45.1986C45.7929 21.147 46.2748 20.6651 46.2748 20.0708C46.2748 19.476 45.7929 18.9946 45.1986 18.9946H34.437C33.8427 18.9946 33.3608 19.476 33.3608 20.0708C33.3608 20.6651 33.8427 21.147 34.437 21.147Z" fill="#006771"/>
</g>
<defs>
<clipPath id="clip0">
<rect width="65" height="65" fill="white"/>
</clipPath>
</defs>
</svg>
