<svg width="60" height="60" viewBox="0 0 60 60" fill="none" xmlns="http://www.w3.org/2000/svg">
<path d="M55.1981 12.6759L50.1056 3.34031C49.8636 2.89677 49.5066 2.52663 49.072 2.26878C48.6375 2.01093 48.1415 1.87491 47.6362 1.875H12.3637C11.8585 1.87491 11.3625 2.01093 10.928 2.26878C10.4934 2.52663 10.1364 2.89677 9.89437 3.34031L4.80188 12.6759C4.72677 12.8137 4.68745 12.9681 4.6875 13.125V55.3125C4.6875 56.0584 4.98382 56.7738 5.51126 57.3012C6.03871 57.8287 6.75408 58.125 7.5 58.125H52.5C53.2459 58.125 53.9613 57.8287 54.4887 57.3012C55.0162 56.7738 55.3125 56.0584 55.3125 55.3125V13.125C55.3126 12.9681 55.2732 12.8137 55.1981 12.6759ZM23.4375 19.6875H6.5625V14.0625H23.4375V19.6875ZM25.3125 14.0625H34.6875V28.2488L30.5203 25.47C30.3663 25.3672 30.1852 25.3124 30 25.3124C29.8148 25.3124 29.6337 25.3672 29.4797 25.47L25.3125 28.2488V14.0625ZM36.5625 14.0625H53.4375V19.6875H36.5625V14.0625ZM53.4375 39.5241L52.8619 38.6456C52.7915 38.5382 52.6999 38.4465 52.5926 38.376C52.4853 38.3055 52.3647 38.2578 52.2382 38.2358C52.1117 38.2138 51.9821 38.218 51.8573 38.2482C51.7325 38.2784 51.6153 38.3339 51.5128 38.4113L48.5916 40.6191L46.5816 37.5487C46.5112 37.4412 46.4195 37.3493 46.3121 37.2787C46.2048 37.2082 46.0841 37.1604 45.9575 37.1384C45.8309 37.1164 45.7011 37.1207 45.5762 37.151C45.4514 37.1813 45.334 37.2369 45.2316 37.3144L42.3112 39.5203L40.3125 36.4538C40.2156 36.3046 40.0783 36.1861 39.9166 36.1121C39.755 36.0381 39.5756 36.0115 39.3994 36.0356L38.3963 36.1744L39.4744 35.1562L42.9206 37.1344C43.0321 37.1988 43.1557 37.2396 43.2837 37.2542C43.4117 37.2688 43.5413 37.2568 43.6644 37.2191C43.7876 37.1813 43.9017 37.1186 43.9995 37.0349C44.0973 36.9511 44.1769 36.8481 44.2331 36.7322L45.8381 33.4341L49.0172 35.2594C49.1288 35.3238 49.2525 35.3645 49.3806 35.3789C49.5086 35.3933 49.6383 35.3812 49.7615 35.3433C49.8846 35.3054 49.9987 35.2425 50.0964 35.1585C50.1942 35.0746 50.2736 34.9713 50.3297 34.8553L51.9234 31.56L53.4375 32.4272V39.5241ZM11.5406 4.23844C11.6213 4.09059 11.7403 3.96721 11.8852 3.88126C12.03 3.79531 12.1953 3.74997 12.3637 3.75H47.6362C47.8047 3.74997 47.97 3.79531 48.1148 3.88126C48.2597 3.96721 48.3787 4.09059 48.4594 4.23844L52.7963 12.1875H7.20375L11.5406 4.23844ZM52.5 56.25H7.5C7.25136 56.25 7.0129 56.1512 6.83709 55.9754C6.66127 55.7996 6.5625 55.5611 6.5625 55.3125V21.5625H23.4375V30C23.4375 30.1697 23.4835 30.3363 23.5707 30.4819C23.658 30.6275 23.7831 30.7467 23.9327 30.8268C24.0824 30.9068 24.251 30.9448 24.4205 30.9365C24.59 30.9283 24.7541 30.8742 24.8953 30.78L30 27.375L35.1047 30.7781C35.2457 30.8722 35.4097 30.9263 35.579 30.9346C35.7484 30.943 35.9169 30.9052 36.0665 30.8253C36.216 30.7455 36.3412 30.6266 36.4285 30.4812C36.5159 30.3359 36.5622 30.1696 36.5625 30V21.5625H53.4375V30.2653L51.9825 29.4309C51.8709 29.3665 51.7472 29.3259 51.6191 29.3114C51.491 29.297 51.3614 29.3091 51.2382 29.347C51.1151 29.3849 51.001 29.4478 50.9033 29.5318C50.8055 29.6158 50.7261 29.719 50.67 29.835L49.0762 33.1303L45.8981 31.3059C45.7866 31.2415 45.663 31.2007 45.535 31.1861C45.4071 31.1716 45.2775 31.1835 45.1543 31.2212C45.0312 31.259 44.9171 31.3217 44.8193 31.4055C44.7214 31.4892 44.6419 31.5923 44.5856 31.7081L42.9834 35.0062L39.8044 33.1809C39.6297 33.0805 39.4273 33.0391 39.2272 33.0627C39.0271 33.0863 38.8399 33.1738 38.6934 33.3122L34.9809 36.8184C34.8364 36.9548 34.7389 37.1336 34.7026 37.3289C34.6662 37.5243 34.6929 37.7262 34.7788 37.9054C34.8646 38.0846 35.0052 38.2319 35.1802 38.326C35.3552 38.4202 35.5556 38.4562 35.7525 38.4291L39.0638 37.9753L41.2894 41.3869C41.3597 41.4946 41.4513 41.5867 41.5588 41.6575C41.6662 41.7282 41.787 41.7762 41.9137 41.7982C42.0404 41.8203 42.1703 41.8161 42.2953 41.7858C42.4203 41.7555 42.5378 41.6998 42.6403 41.6222L45.5625 39.4144L47.5725 42.4847C47.6429 42.5921 47.7345 42.6838 47.8418 42.7543C47.9491 42.8248 48.0697 42.8726 48.1962 42.8945C48.3227 42.9165 48.4523 42.9123 48.5771 42.8821C48.7019 42.8519 48.8191 42.7964 48.9216 42.7191L51.8438 40.5113L53.4375 42.9487V55.3125C53.4375 55.5611 53.3387 55.7996 53.1629 55.9754C52.9871 56.1512 52.7486 56.25 52.5 56.25Z" fill="#006771"/>
</svg>
