<svg width="68" height="68" viewBox="0 0 68 68" fill="none" xmlns="http://www.w3.org/2000/svg">
<path d="M40.0334 33.9997C40.0334 26.4367 33.8804 20.2837 26.3174 20.2837C18.7543 20.2837 12.6013 26.4367 12.6013 33.9997C12.6013 41.5628 18.7543 47.7158 26.3174 47.7158C33.8804 47.7158 40.0334 41.5628 40.0334 33.9997ZM37.745 33.9997C37.745 37.3474 36.298 40.3635 33.9968 42.4553C31.6085 40.2928 30.2552 37.2597 30.2552 33.9997C30.2552 30.7398 31.6085 27.7066 33.9968 25.5442C36.2982 27.636 37.745 30.6521 37.745 33.9997ZM14.8898 33.9997C14.8898 27.6985 20.0161 22.5722 26.3174 22.5722C28.436 22.5722 30.4206 23.1538 32.1234 24.1626C29.4648 26.7339 27.9665 30.2414 27.9665 33.9997C27.9665 37.7581 29.4647 41.2656 32.1234 43.8369C30.4206 44.8457 28.436 45.4273 26.3174 45.4273C20.0161 45.4273 14.8898 40.301 14.8898 33.9997Z" fill="#006771"/>
<path d="M41.6827 7.68262H26.3173C11.8058 7.68262 0 19.4885 0 33.9999C0 48.5114 11.8058 60.3172 26.3173 60.3172H41.6827C56.1942 60.3172 68 48.5114 68 33.9999C68 19.4885 56.1942 7.68262 41.6827 7.68262ZM41.6827 9.97108C54.763 9.97108 65.4345 20.4769 65.7052 33.4937L64.295 34.754L61.734 32.4655L59.1731 34.754L56.6121 32.4655L54.0512 34.754L52.6279 33.4821C52.4247 23.0107 46.0764 14.0189 37.0468 9.97108H41.6827ZM2.28846 33.9999C2.28846 20.7504 13.0678 9.97108 26.3173 9.97108C39.5668 9.97108 50.3462 20.7504 50.3462 33.9999C50.3462 47.2495 39.5668 58.0288 26.3173 58.0288C13.0678 58.0288 2.28846 47.2495 2.28846 33.9999ZM41.6827 58.0288H37.0468C45.5146 54.2329 51.6241 46.0886 52.5192 36.454L54.0512 37.823L56.6121 35.5345L59.1731 37.823L61.734 35.5345L64.295 37.823L65.5598 36.6926C64.217 48.6793 54.0219 58.0288 41.6827 58.0288Z" fill="#006771"/>
</svg>
