<svg width="60" height="60" viewBox="0 0 60 60" fill="none" xmlns="http://www.w3.org/2000/svg">
<path d="M53.3078 48.9047C52.9828 48.3417 52.2629 48.1487 51.6995 48.4738L47.4197 50.9445C46.8566 51.2696 46.6636 51.9897 46.9888 52.5528C47.2069 52.9305 47.6026 53.1418 48.0096 53.1418C48.2093 53.1418 48.4117 53.0908 48.5971 52.9838L52.8769 50.5131C53.4399 50.1879 53.633 49.4679 53.3078 48.9047Z" fill="#006771"/>
<path d="M59.7041 34.1071C59.7037 34.0591 59.7009 34.0112 59.6946 33.9633C59.6941 33.9601 59.6934 33.957 59.693 33.9538C59.687 33.9109 59.6781 33.8684 59.6673 33.8259C59.6642 33.814 59.6609 33.8025 59.6576 33.7908C59.6477 33.7566 59.636 33.7227 59.6229 33.6891C59.6183 33.6776 59.6142 33.6657 59.6093 33.6544C59.5912 33.6124 59.5714 33.5711 59.5481 33.5305C59.5474 33.5293 59.5467 33.528 59.546 33.5269C59.5227 33.4866 59.4968 33.4488 59.4696 33.4124C59.4622 33.4024 59.454 33.3929 59.4463 33.3833C59.4238 33.3551 59.4002 33.3281 59.3755 33.3023C59.3671 33.2936 59.3586 33.2848 59.35 33.2763C59.3187 33.2456 59.286 33.2167 59.2518 33.19C59.2493 33.1881 59.2471 33.1859 59.2446 33.184C59.2063 33.1547 59.1663 33.1282 59.125 33.1039C59.1219 33.1022 59.1192 33.0998 59.1162 33.0981L45.4408 25.2032V9.41205C45.4408 9.40866 45.4402 9.40549 45.4401 9.40209C45.4397 9.35393 45.4368 9.30577 45.4305 9.2576C45.4301 9.25514 45.4295 9.2528 45.4292 9.25045C45.4232 9.20662 45.4141 9.16326 45.4029 9.1199C45.4001 9.10877 45.3969 9.09764 45.3937 9.08651C45.3836 9.05147 45.3717 9.01666 45.3582 8.98221C45.354 8.97143 45.3501 8.96041 45.3455 8.94987C45.3271 8.90709 45.3071 8.86479 45.2832 8.82342C45.2594 8.78217 45.2329 8.74373 45.2051 8.70646C45.1981 8.69697 45.1903 8.68795 45.1829 8.67869C45.16 8.64998 45.1361 8.62256 45.111 8.59654C45.1028 8.58799 45.0945 8.57932 45.0861 8.571C45.0547 8.54018 45.0218 8.51111 44.9876 8.48428C44.9853 8.4824 44.9831 8.48029 44.9807 8.47842C44.9423 8.449 44.9022 8.42252 44.8607 8.39814C44.8578 8.39639 44.8552 8.39416 44.8523 8.39252L30.5889 0.15772C30.2246 -0.0525149 29.7758 -0.052632 29.4115 0.15772L15.1484 8.3924C15.1456 8.39404 15.1433 8.39604 15.1404 8.39768C15.0987 8.42217 15.0584 8.44877 15.0196 8.47853C15.0177 8.47994 15.0161 8.48158 15.0142 8.4831C14.9794 8.51018 14.9461 8.53982 14.9143 8.571C14.9059 8.5792 14.8977 8.58764 14.8897 8.59607C14.8646 8.62221 14.8407 8.64963 14.8178 8.67834C14.8104 8.6876 14.8026 8.69674 14.7954 8.70635C14.7677 8.7435 14.7413 8.78205 14.7175 8.82318C14.6937 8.86444 14.6736 8.9065 14.6553 8.94916C14.6506 8.96018 14.6466 8.97166 14.6422 8.98279C14.6288 9.01678 14.6171 9.051 14.6071 9.08557C14.6038 9.09694 14.6006 9.10842 14.5975 9.1199C14.5866 9.16268 14.5776 9.20569 14.5716 9.24893C14.5713 9.25186 14.5704 9.25455 14.5701 9.25748C14.5638 9.30541 14.5609 9.35358 14.5606 9.40151C14.5606 9.40491 14.5599 9.4083 14.5599 9.4117V25.2027L0.884289 33.0977C0.88136 33.0994 0.878899 33.1016 0.876086 33.1032C0.834485 33.1276 0.794172 33.1542 0.755617 33.1839C0.753742 33.1853 0.751984 33.187 0.750109 33.1884C0.715304 33.2155 0.68214 33.245 0.650265 33.2764C0.641828 33.2846 0.633742 33.2932 0.625538 33.3016C0.600577 33.3277 0.576671 33.355 0.553819 33.3837C0.546319 33.393 0.538351 33.4023 0.531202 33.4119C0.50378 33.4486 0.477764 33.4867 0.45421 33.5273C0.453858 33.5279 0.453389 33.5285 0.453038 33.5292C0.429483 33.5702 0.409327 33.612 0.39128 33.6544C0.386475 33.6656 0.382373 33.6773 0.377803 33.6888C0.364678 33.7225 0.352959 33.7566 0.342998 33.7908C0.3396 33.8024 0.336319 33.814 0.333272 33.8257C0.322373 33.8682 0.313467 33.9109 0.30749 33.9539C0.307022 33.957 0.306318 33.96 0.30585 33.9632C0.299521 34.0111 0.296709 34.0591 0.296357 34.1072C0.296357 34.1106 0.295654 34.1139 0.295654 34.1173V50.5879H0.295771C0.295771 51.0086 0.520186 51.3972 0.884407 51.6076L15.1486 59.8421C15.1515 59.8438 15.1546 59.8448 15.1574 59.8465C15.1994 59.8703 15.2424 59.8918 15.2873 59.9105C15.29 59.9115 15.2927 59.9123 15.2954 59.9134C15.3358 59.9298 15.3774 59.9435 15.4199 59.9555C15.4315 59.9587 15.4433 59.9616 15.4549 59.9644C15.4895 59.9729 15.5249 59.9798 15.5608 59.9852C15.5729 59.9871 15.5849 59.9893 15.5971 59.9907C15.6431 59.9961 15.6897 59.9998 15.737 59.9998C15.7844 59.9998 15.831 59.9961 15.877 59.9907C15.8892 59.9893 15.9012 59.987 15.9133 59.9852C15.9492 59.9798 15.9844 59.973 16.0191 59.9644C16.0308 59.9614 16.0426 59.9586 16.0543 59.9553C16.0966 59.9436 16.1379 59.9298 16.1781 59.9135C16.1811 59.9123 16.184 59.9115 16.1869 59.9102C16.2317 59.8917 16.2747 59.8701 16.3163 59.8465C16.3192 59.8448 16.3224 59.8437 16.3254 59.842L29.9998 51.9472L43.6741 59.842C43.6771 59.8438 43.6803 59.8448 43.6833 59.8466C43.725 59.8703 43.7679 59.8917 43.8126 59.9102C43.8156 59.9115 43.8188 59.9123 43.8218 59.9136C43.8619 59.9299 43.9032 59.9435 43.9454 59.9553C43.9571 59.9586 43.9689 59.9614 43.9806 59.9644C44.0152 59.9729 44.0506 59.9798 44.0863 59.9852C44.0985 59.9871 44.1106 59.9893 44.1228 59.9907C44.1687 59.9961 44.2152 59.9998 44.2627 59.9998C44.3102 59.9998 44.3567 59.9961 44.4026 59.9907C44.4148 59.9893 44.4269 59.987 44.4391 59.9852C44.4748 59.9798 44.5102 59.973 44.5448 59.9644C44.5565 59.9614 44.5683 59.9586 44.5801 59.9553C44.6222 59.9436 44.6634 59.9299 44.7036 59.9136C44.7066 59.9124 44.7098 59.9115 44.7128 59.9102C44.7575 59.8917 44.8004 59.8701 44.8421 59.8466C44.8451 59.8448 44.8483 59.8438 44.8513 59.842L59.1156 51.6075C59.4799 51.3972 59.7043 51.0085 59.7043 50.5878V34.1175C59.7048 34.1139 59.7041 34.1106 59.7041 34.1071ZM49.0536 30.0077L37.1452 36.883L32.3549 34.1173L44.2631 27.2422L49.0536 30.0077ZM43.0858 25.203L31.1776 32.0781V18.3277L43.0858 11.4516V25.203ZM30.0001 2.53687L34.7904 5.30251L22.8819 12.1779L18.0918 9.41205L30.0001 2.53687ZM15.737 27.2423L20.5268 30.0076L8.61811 36.8828L3.82793 34.1174L15.737 27.2423ZM14.5598 56.7835L2.65031 49.9083V36.1567L7.72291 39.0851C7.88006 39.2488 8.07752 39.3607 8.29069 39.4129L14.5598 43.0321V56.7835ZM15.7372 40.9927L10.9731 38.2424L22.8814 31.3671L27.6453 34.1175L15.7372 40.9927ZM28.8227 49.9083L16.9145 56.7834V43.032L28.8227 36.1567V49.9083ZM28.8227 32.0782L16.9145 25.2031V11.4515L21.984 14.3788C22.142 14.5442 22.3411 14.6569 22.556 14.7091L28.8228 18.3277V32.0782H28.8227ZM25.2368 13.5378L37.1452 6.662L41.9084 9.41205L30.0002 16.2883L25.2368 13.5378ZM43.0857 56.7833L31.1776 49.9083V36.1567L36.2501 39.0852C36.4068 39.2485 36.604 39.36 36.8168 39.4124L43.0858 43.0318V56.7833H43.0857ZM44.2632 40.9927L39.5 38.2426L51.4084 31.3672L56.1723 34.1175L44.2632 40.9927ZM57.3499 49.9083L45.4406 56.7835V43.032L57.3499 36.1567V49.9083Z" fill="#006771"/>
<path d="M55.2355 46.7778C53.7203 46.7778 53.7178 49.1326 55.2355 49.1326C56.7506 49.1326 56.7532 46.7778 55.2355 46.7778Z" fill="#006771"/>
</svg>
