<svg width="59" height="59" viewBox="0 0 59 59" fill="none" xmlns="http://www.w3.org/2000/svg">
<path d="M56.2344 47.9375H55.3125V4.60938C55.3125 4.36488 55.2154 4.1304 55.0425 3.95751C54.8696 3.78463 54.6351 3.6875 54.3906 3.6875H4.60938C4.36488 3.6875 4.1304 3.78463 3.95751 3.95751C3.78463 4.1304 3.6875 4.36488 3.6875 4.60938V47.9375H2.76562C2.52113 47.9375 2.28665 48.0346 2.11376 48.2075C1.94088 48.3804 1.84375 48.6149 1.84375 48.8594V52.5469C1.84375 52.7914 1.94088 53.0259 2.11376 53.1987C2.28665 53.3716 2.52113 53.4688 2.76562 53.4688H5.53125V56.2344C5.53125 56.4789 5.62838 56.7134 5.80126 56.8862C5.97415 57.0591 6.20863 57.1562 6.45312 57.1562H11.9844C12.2289 57.1562 12.4634 57.0591 12.6362 56.8862C12.8091 56.7134 12.9062 56.4789 12.9062 56.2344V53.4688H25.8125V56.2344C25.8125 56.4789 25.9096 56.7134 26.0825 56.8862C26.2554 57.0591 26.4899 57.1562 26.7344 57.1562H32.2656C32.5101 57.1562 32.7446 57.0591 32.9175 56.8862C33.0904 56.7134 33.1875 56.4789 33.1875 56.2344V53.4688H46.0938V56.2344C46.0938 56.4789 46.1909 56.7134 46.3638 56.8862C46.5366 57.0591 46.7711 57.1562 47.0156 57.1562H52.5469C52.7914 57.1562 53.0259 57.0591 53.1987 56.8862C53.3716 56.7134 53.4688 56.4789 53.4688 56.2344V53.4688H56.2344C56.4789 53.4688 56.7134 53.3716 56.8862 53.1987C57.0591 53.0259 57.1562 52.7914 57.1562 52.5469V48.8594C57.1562 48.6149 57.0591 48.3804 56.8862 48.2075C56.7134 48.0346 56.4789 47.9375 56.2344 47.9375ZM38.7188 47.9375V35.0312H42.4062V39.6406C42.4062 39.8851 42.5034 40.1196 42.6763 40.2925C42.8491 40.4654 43.0836 40.5625 43.3281 40.5625H48.8594C49.1039 40.5625 49.3384 40.4654 49.5112 40.2925C49.6841 40.1196 49.7812 39.8851 49.7812 39.6406V35.0312H53.4688V47.9375H38.7188ZM11.0625 35.0312H14.75V38.7188H11.0625V35.0312ZM5.53125 33.1875V20.2812H9.21875V24.8906C9.21875 25.1351 9.31588 25.3696 9.48876 25.5425C9.66165 25.7154 9.89613 25.8125 10.1406 25.8125H15.6719C15.9164 25.8125 16.1509 25.7154 16.3237 25.5425C16.4966 25.3696 16.5938 25.1351 16.5938 24.8906V20.2812H20.2812V33.1875H5.53125ZM11.0625 20.2812H14.75V23.9688H11.0625V20.2812ZM22.125 20.2812H25.8125V24.8906C25.8125 25.1351 25.9096 25.3696 26.0825 25.5425C26.2554 25.7154 26.4899 25.8125 26.7344 25.8125H32.2656C32.5101 25.8125 32.7446 25.7154 32.9175 25.5425C33.0904 25.3696 33.1875 25.1351 33.1875 24.8906V20.2812H36.875V33.1875H22.125V20.2812ZM27.6562 5.53125H31.3438V9.21875H27.6562V5.53125ZM26.7344 11.0625H32.2656C32.5101 11.0625 32.7446 10.9654 32.9175 10.7925C33.0904 10.6196 33.1875 10.3851 33.1875 10.1406V5.53125H36.875V18.4375H22.125V5.53125H25.8125V10.1406C25.8125 10.3851 25.9096 10.6196 26.0825 10.7925C26.2554 10.9654 26.4899 11.0625 26.7344 11.0625ZM27.6562 20.2812H31.3438V23.9688H27.6562V20.2812ZM44.25 20.2812H47.9375V23.9688H44.25V20.2812ZM43.3281 25.8125H48.8594C49.1039 25.8125 49.3384 25.7154 49.5112 25.5425C49.6841 25.3696 49.7812 25.1351 49.7812 24.8906V20.2812H53.4688V33.1875H38.7188V20.2812H42.4062V24.8906C42.4062 25.1351 42.5034 25.3696 42.6763 25.5425C42.8491 25.7154 43.0836 25.8125 43.3281 25.8125ZM44.25 35.0312H47.9375V38.7188H44.25V35.0312ZM27.6562 35.0312H31.3438V38.7188H27.6562V35.0312ZM25.8125 35.0312V39.6406C25.8125 39.8851 25.9096 40.1196 26.0825 40.2925C26.2554 40.4654 26.4899 40.5625 26.7344 40.5625H32.2656C32.5101 40.5625 32.7446 40.4654 32.9175 40.2925C33.0904 40.1196 33.1875 39.8851 33.1875 39.6406V35.0312H36.875V47.9375H22.125V35.0312H25.8125ZM53.4688 18.4375H38.7188V5.53125H42.4062V10.1406C42.4062 10.3851 42.5034 10.6196 42.6763 10.7925C42.8491 10.9654 43.0836 11.0625 43.3281 11.0625H48.8594C49.1039 11.0625 49.3384 10.9654 49.5112 10.7925C49.6841 10.6196 49.7812 10.3851 49.7812 10.1406V5.53125H53.4688V18.4375ZM44.25 5.53125H47.9375V9.21875H44.25V5.53125ZM11.0625 5.53125H14.75V9.21875H11.0625V5.53125ZM9.21875 5.53125V10.1406C9.21875 10.3851 9.31588 10.6196 9.48876 10.7925C9.66165 10.9654 9.89613 11.0625 10.1406 11.0625H15.6719C15.9164 11.0625 16.1509 10.9654 16.3237 10.7925C16.4966 10.6196 16.5938 10.3851 16.5938 10.1406V5.53125H20.2812V18.4375H5.53125V5.53125H9.21875ZM5.53125 35.0312H9.21875V39.6406C9.21875 39.8851 9.31588 40.1196 9.48876 40.2925C9.66165 40.4654 9.89613 40.5625 10.1406 40.5625H15.6719C15.9164 40.5625 16.1509 40.4654 16.3237 40.2925C16.4966 40.1196 16.5938 39.8851 16.5938 39.6406V35.0312H20.2812V47.9375H5.53125V35.0312ZM11.0625 55.3125H7.375V53.4688H11.0625V55.3125ZM31.3438 55.3125H27.6562V53.4688H31.3438V55.3125ZM51.625 55.3125H47.9375V53.4688H51.625V55.3125ZM55.3125 51.625H3.6875V49.7812H55.3125V51.625Z" fill="#006771"/>
<path d="M49.7812 44.25H51.625V46.0938H49.7812V44.25Z" fill="#006771"/>
<path d="M33.1875 44.25H35.0312V46.0938H33.1875V44.25Z" fill="#006771"/>
<path d="M49.7812 29.5H51.625V31.3438H49.7812V29.5Z" fill="#006771"/>
<path d="M33.1875 29.5H35.0312V31.3438H33.1875V29.5Z" fill="#006771"/>
<path d="M16.5938 44.25H18.4375V46.0938H16.5938V44.25Z" fill="#006771"/>
<path d="M16.5938 29.5H18.4375V31.3438H16.5938V29.5Z" fill="#006771"/>
<path d="M49.7812 14.75H51.625V16.5938H49.7812V14.75Z" fill="#006771"/>
<path d="M33.1875 14.75H35.0312V16.5938H33.1875V14.75Z" fill="#006771"/>
<path d="M16.5938 14.75H18.4375V16.5938H16.5938V14.75Z" fill="#006771"/>
</svg>
