<svg width="70" height="69" viewBox="0 0 70 69" fill="none" xmlns="http://www.w3.org/2000/svg">
<path d="M64.6565 30.1875H61.251C61.057 29.4953 60.6396 28.8842 60.062 28.4466C59.4844 28.0089 58.7779 27.7685 58.0494 27.7618H54.4141V18.9988C54.4182 18.8348 54.378 18.6728 54.2976 18.5292C54.2172 18.3857 54.0995 18.2657 53.9566 18.1818L28.3113 3.58102C28.1668 3.49821 28.0026 3.45459 27.8354 3.45459C27.6682 3.45459 27.504 3.49821 27.3595 3.58102L1.70625 18.1818C1.5611 18.2647 1.44069 18.3839 1.35716 18.5274C1.27364 18.6708 1.22994 18.8334 1.23047 18.9988V48.2004C1.23048 48.366 1.2747 48.5287 1.3587 48.6721C1.44269 48.8155 1.56351 48.9346 1.70899 49.0174L27.3648 63.6182C27.5103 63.701 27.6753 63.7446 27.8433 63.7446C28.0157 63.7447 28.1851 63.7012 28.3355 63.6182L41.8359 55.9423V61.4912C41.8345 62.0195 41.9395 62.5428 42.1447 63.0308C42.3498 63.5189 42.6512 63.962 43.0312 64.3344C43.4113 64.7069 43.8626 65.0014 44.3589 65.2008C44.8552 65.4002 45.3867 65.5006 45.9226 65.4961H64.6565C65.1938 65.5011 65.7268 65.4012 66.2248 65.2023C66.7228 65.0034 67.176 64.7093 67.5583 64.3371C67.9405 63.9649 68.2444 63.5218 68.4522 63.0334C68.6601 62.545 68.768 62.0208 68.7695 61.4912V34.255C68.7689 33.1787 68.3358 32.1465 67.5649 31.3842C66.7941 30.622 65.7484 30.1917 64.6565 30.1875ZM58.0835 29.6485C58.4519 29.6485 58.8052 29.7927 59.0658 30.0495C59.3263 30.3064 59.4727 30.6546 59.4727 31.0178V31.1092C59.4727 31.4724 59.3263 31.8207 59.0658 32.0775C58.8052 32.3343 58.4519 32.4786 58.0835 32.4786H52.522C52.1536 32.4786 51.8002 32.3343 51.5397 32.0775C51.2792 31.8207 51.1328 31.4724 51.1328 31.1092V31.0178C51.1328 30.6546 51.2792 30.3064 51.5397 30.0495C51.8002 29.7927 52.1536 29.6485 52.522 29.6485H58.0835ZM27.8433 5.48728L38.5038 11.5542L14.7637 25.0647L4.10334 18.9978L27.8433 5.48728ZM26.9336 61.1672L3.14454 47.6557V20.6306L26.9336 34.1421V61.1672ZM27.8433 32.5082L16.6778 26.1539L40.4179 12.6435L51.584 18.9978L27.8433 32.5082ZM41.8359 34.255V53.7638L28.8477 61.1672V34.1421L52.5 20.6306V27.7618H52.5297C51.8012 27.7685 51.0947 28.0089 50.5171 28.4465C49.9395 28.8842 49.5221 29.4953 49.3281 30.1875H45.9226C44.8335 30.1927 43.7911 30.6242 43.0247 31.387C42.2583 32.1498 41.8307 33.1815 41.8359 34.255ZM66.8555 61.4912C66.8542 61.7731 66.796 62.0521 66.6844 62.3117C66.5728 62.5713 66.41 62.8065 66.2054 63.0036C66.0008 63.2007 65.7585 63.3557 65.4926 63.4597C65.2267 63.5637 64.9425 63.6146 64.6565 63.6094H45.9226C45.638 63.6141 45.3552 63.5628 45.091 63.4583C44.8268 63.3538 44.5865 63.1983 44.3841 63.001C44.1817 62.8036 44.0213 62.5684 43.9124 62.3092C43.8035 62.0499 43.7483 61.7718 43.75 61.4912V34.255C43.7471 33.9712 43.8011 33.6895 43.9087 33.4262C44.0164 33.1629 44.1757 32.9231 44.3775 32.7205C44.5793 32.518 44.8196 32.3566 45.0848 32.2457C45.3499 32.1348 45.6346 32.0766 45.9226 32.0743H49.3655C49.5707 32.742 49.99 33.3262 50.5605 33.7392C51.1309 34.1523 51.8219 34.3719 52.5297 34.3653H58.0494C58.7572 34.3719 59.4481 34.1523 60.0186 33.7392C60.589 33.3262 61.0083 32.742 61.2135 32.0743H64.6565C65.2409 32.0779 65.8001 32.3092 66.2121 32.7178C66.624 33.1264 66.8553 33.679 66.8555 34.255V61.4912Z" fill="#006771"/>
<path d="M47.0243 43.7988H48.026C48.2799 43.7988 48.5233 43.6994 48.7028 43.5225C48.8822 43.3456 48.9831 43.1057 48.9831 42.8555C48.9831 42.6053 48.8822 42.3653 48.7028 42.1884C48.5233 42.0115 48.2799 41.9121 48.026 41.9121H47.9883V39.3516H50.6279C50.688 39.5412 50.8095 39.7063 50.9739 39.8213C51.1382 39.9364 51.3363 39.9952 51.5378 39.9886C51.7919 39.9893 52.0359 39.8906 52.2163 39.7141C52.3967 39.5377 52.4987 39.2979 52.5 39.0474V38.4126C52.4979 38.1609 52.3951 37.9202 52.2139 37.7428C52.0328 37.5653 51.788 37.4654 51.5326 37.4648H47.0243C46.8988 37.4655 46.7746 37.4905 46.6588 37.5385C46.5431 37.5865 46.4381 37.6565 46.3499 37.7446C46.2616 37.8326 46.1919 37.9369 46.1446 38.0515C46.0973 38.1662 46.0734 38.2889 46.0742 38.4126V42.8565C46.0735 42.98 46.0975 43.1024 46.1449 43.2167C46.1923 43.331 46.2622 43.4349 46.3505 43.5225C46.4388 43.61 46.5437 43.6795 46.6594 43.727C46.775 43.7744 46.899 43.7988 47.0243 43.7988Z" fill="#006771"/>
<path d="M47.0312 52.4238H51.543C51.7968 52.4238 52.0402 52.3244 52.2197 52.1475C52.3992 51.9706 52.5 51.7307 52.5 51.4805V47.0332C52.5 46.783 52.3992 46.5431 52.2197 46.3661C52.0402 46.1892 51.7968 46.0898 51.543 46.0898H47.0312C46.7774 46.0898 46.534 46.1892 46.3545 46.3661C46.175 46.5431 46.0742 46.783 46.0742 47.0332V51.4805C46.0742 51.7307 46.175 51.9706 46.3545 52.1475C46.534 52.3244 46.7774 52.4238 47.0312 52.4238ZM47.9883 47.9766H50.5859V50.5371H47.9883V47.9766Z" fill="#006771"/>
<path d="M48.0262 59.1621H47.9883V56.6016H50.5763C50.5812 56.8496 50.6846 57.0859 50.8643 57.2597C51.0439 57.4336 51.2855 57.531 51.5372 57.5313C51.789 57.5315 52.0308 57.4345 52.2108 57.2611C52.3908 57.0876 52.4946 56.8515 52.5001 56.6034V55.6945C52.4991 55.4394 52.3977 55.1947 52.2172 55.0119C52.0367 54.8292 51.7913 54.7227 51.5327 54.7148H47.0243C46.7675 54.7234 46.5243 54.8306 46.3467 55.0137C46.1691 55.1968 46.0714 55.4412 46.0743 55.6945V60.1383C46.0742 60.2602 46.0988 60.3808 46.1469 60.493C46.1949 60.6052 46.2653 60.7068 46.3539 60.7917C46.4425 60.8766 46.5475 60.9431 46.6627 60.9873C46.7778 61.0315 46.9008 61.0524 47.0243 61.0488H48.0262C48.28 61.0488 48.5235 60.9494 48.7029 60.7725C48.8824 60.5956 48.9833 60.3557 48.9833 60.1055C48.9833 59.8553 48.8824 59.6153 48.7029 59.4384C48.5235 59.2615 48.28 59.1621 48.0262 59.1621Z" fill="#006771"/>
<path d="M53.736 38.6229L50.9333 41.3856L50.0807 40.5451C49.9919 40.4575 49.8864 40.388 49.7702 40.3406C49.6541 40.2932 49.5297 40.2688 49.404 40.2688C49.2783 40.2688 49.1538 40.2932 49.0377 40.3406C48.9216 40.388 48.8161 40.4575 48.7272 40.5451C48.6383 40.6327 48.5679 40.7367 48.5198 40.8511C48.4717 40.9656 48.4469 41.0883 48.4469 41.2122C48.4469 41.3361 48.4717 41.4587 48.5198 41.5732C48.5679 41.6877 48.6383 41.7917 48.7272 41.8793L50.2567 43.3867C50.3456 43.4744 50.4511 43.5438 50.5672 43.5913C50.6833 43.6387 50.8078 43.6631 50.9335 43.6631C51.0591 43.6631 51.1836 43.6387 51.2997 43.5913C51.4158 43.5438 51.5213 43.4744 51.6102 43.3867L55.09 39.9567C55.2695 39.7798 55.3703 39.5398 55.3703 39.2896C55.3703 39.0394 55.2695 38.7994 55.09 38.6225C54.9105 38.4456 54.6671 38.3462 54.4132 38.3462C54.1594 38.3462 53.916 38.4456 53.7365 38.6225L53.736 38.6229Z" fill="#006771"/>
<path d="M53.736 56.0409L50.9333 58.8036L50.0807 57.963C49.9919 57.8754 49.8864 57.806 49.7702 57.7585C49.6541 57.7111 49.5297 57.6867 49.404 57.6867C49.2783 57.6867 49.1538 57.7111 49.0377 57.7585C48.9216 57.806 48.8161 57.8754 48.7272 57.963C48.6383 58.0506 48.5679 58.1547 48.5198 58.2691C48.4717 58.3836 48.4469 58.5062 48.4469 58.6301C48.4469 58.754 48.4717 58.8767 48.5198 58.9912C48.5679 59.1056 48.6383 59.2096 48.7272 59.2972L50.2567 60.8047C50.3456 60.8923 50.4511 60.9618 50.5672 61.0092C50.6833 61.0566 50.8078 61.0811 50.9335 61.0811C51.0591 61.0811 51.1836 61.0566 51.2997 61.0092C51.4158 60.9618 51.5213 60.8923 51.6102 60.8047L55.09 57.3747C55.2695 57.1977 55.3703 56.9578 55.3703 56.7076C55.3703 56.4574 55.2695 56.2174 55.09 56.0405C54.9105 55.8636 54.6671 55.7642 54.4132 55.7642C54.1594 55.7642 53.916 55.8636 53.7365 56.0405L53.736 56.0409Z" fill="#006771"/>
<path d="M63.5547 39.7559H57.5437C57.2899 39.7559 57.0465 39.8553 56.867 40.0322C56.6875 40.2091 56.5867 40.449 56.5867 40.6992C56.5867 40.9494 56.6875 41.1894 56.867 41.3663C57.0465 41.5432 57.2899 41.6426 57.5437 41.6426H63.5547C63.8085 41.6426 64.0519 41.5432 64.2314 41.3663C64.4109 41.1894 64.5117 40.9494 64.5117 40.6992C64.5117 40.449 64.4109 40.2091 64.2314 40.0322C64.0519 39.8553 63.8085 39.7559 63.5547 39.7559Z" fill="#006771"/>
<path d="M63.5547 48.3809H57.5437C57.2899 48.3809 57.0465 48.4803 56.867 48.6572C56.6875 48.8341 56.5867 49.074 56.5867 49.3242C56.5867 49.5744 56.6875 49.8144 56.867 49.9913C57.0465 50.1682 57.2899 50.2676 57.5437 50.2676H63.5547C63.8085 50.2676 64.0519 50.1682 64.2314 49.9913C64.4109 49.8144 64.5117 49.5744 64.5117 49.3242C64.5117 49.074 64.4109 48.8341 64.2314 48.6572C64.0519 48.4803 63.8085 48.3809 63.5547 48.3809Z" fill="#006771"/>
<path d="M63.5547 57.0059H57.5437C57.2899 57.0059 57.0465 57.1053 56.867 57.2822C56.6875 57.4591 56.5867 57.699 56.5867 57.9492C56.5867 58.1994 56.6875 58.4394 56.867 58.6163C57.0465 58.7932 57.2899 58.8926 57.5437 58.8926H63.5547C63.8085 58.8926 64.0519 58.7932 64.2314 58.6163C64.4109 58.4394 64.5117 58.1994 64.5117 57.9492C64.5117 57.699 64.4109 57.4591 64.2314 57.2822C64.0519 57.1053 63.8085 57.0059 63.5547 57.0059Z" fill="#006771"/>
</svg>
