<svg width="57" height="57" viewBox="0 0 57 57" fill="none" xmlns="http://www.w3.org/2000/svg">
<path d="M0.926284 56.694H42.0838C42.6283 56.694 43.0135 56.1913 43.0135 55.6464V34.3702L56.1913 21.1914C56.5794 20.8101 56.5852 20.1866 56.2043 19.7981L50.9605 14.5476C50.5662 14.1629 49.937 14.1624 49.5422 14.5466L43.0135 21.0359V11.0244C43.0241 10.7664 42.9297 10.5151 42.7525 10.3268L32.7897 0.319192C32.6135 0.125655 32.3675 0.0105916 32.106 0H0.926284C0.382261 0 0 0.50262 0 1.04712V55.6468C0 56.1913 0.382261 56.694 0.926284 56.694ZM32.4036 35.3244L35.4414 38.3623L30.8779 39.888L32.4036 35.3244ZM37.2646 37.3965L33.3688 33.5012L45.8804 21.0176L49.7483 24.8855L37.2646 37.3965ZM50.2697 16.6384L54.1274 20.4962L51.1406 23.4898L47.2766 19.6248L50.2697 16.6384ZM33.1536 3.42735L39.7036 9.98307H33.1536V3.42735ZM1.97196 1.97196H31.1817V11.0244C31.1701 11.2738 31.263 11.5164 31.4392 11.6931C31.615 11.8703 31.8567 11.9651 32.106 11.955H41.0415V23.0035L31.2491 32.8017C31.1456 32.9028 31.0685 33.0275 31.0247 33.1652L29.6343 37.3441H8.34378C7.79927 37.3441 7.35779 37.7855 7.35779 38.3301C7.35779 38.8746 7.79927 39.316 8.34378 39.316H28.9757L28.3816 41.1156C28.2632 41.4661 28.3556 41.8542 28.6195 42.1137C28.6888 42.183 28.7673 42.274 28.8506 42.274H8.34378C7.79927 42.274 7.35779 42.7155 7.35779 43.26C7.35779 43.8045 7.79927 44.2459 8.34378 44.2459H34.596C35.141 44.2459 35.582 43.8045 35.582 43.26C35.582 42.7155 35.141 42.274 34.596 42.274H29.8274L37.578 39.7046C37.7143 39.6598 37.8375 39.5813 37.9358 39.4773L41.0415 36.3465V54.722H1.97196V1.97196Z" fill="#006771"/>
<path d="M34.596 47.2041H8.34377C7.79927 47.2041 7.35779 47.6456 7.35779 48.1901C7.35779 48.7346 7.79927 49.1761 8.34377 49.1761H34.596C35.141 49.1761 35.582 48.7346 35.582 48.1901C35.582 47.6456 35.141 47.2041 34.596 47.2041Z" fill="#006771"/>
<path d="M8.34377 34.386H22.2712C22.8162 34.386 23.2572 33.9445 23.2572 33.4C23.2572 32.8555 22.8162 32.4141 22.2712 32.4141H8.34377C7.79927 32.4141 7.35779 32.8555 7.35779 33.4C7.35779 33.9445 7.79927 34.386 8.34377 34.386Z" fill="#006771"/>
</svg>
