<svg width="60" height="60" viewBox="0 0 60 60" fill="none" xmlns="http://www.w3.org/2000/svg">
<g clip-path="url(#clip0)">
<path d="M53.8314 14.0639C56.0321 11.9623 56.6228 8.67981 55.293 5.94308C53.9632 3.20635 51.0176 1.64223 48.0055 2.07427C44.9934 2.50582 42.6053 4.83443 42.098 7.83428C41.5903 10.8346 43.0798 13.8189 45.7818 15.2175C44.6595 16.1572 44.0088 17.5446 44.0034 19.0087V27.007H41.004V19.0087C40.9987 15.4674 38.3513 12.4871 34.8354 12.0643C36.9063 10.0902 37.5668 7.05417 36.5035 4.398C35.4403 1.74133 32.8676 0 30.0064 0C27.1452 0 24.5725 1.74133 23.5092 4.398C22.4459 7.05417 23.1065 10.0902 25.1773 12.0643C21.6614 12.4871 19.0141 15.4674 19.0087 19.0087V27.007H16.0093V19.0087C16.0039 17.5446 15.3532 16.1572 14.2309 15.2175C16.933 13.8189 18.4224 10.8346 17.9147 7.83428C17.407 4.83443 15.0193 2.50582 12.0072 2.07427C8.99517 1.64223 6.04951 3.20635 4.71971 5.94308C3.38991 8.67981 3.98061 11.9623 6.18131 14.0639C2.66546 14.4867 0.0180653 17.467 0.0126953 21.0083V36.0051C0.0166007 38.7047 1.57242 41.1617 4.01185 42.3187V60H6.01143V42.9236C6.33948 42.9704 13.01 43.0036 13.01 43.0036C13.5621 43.0036 14.0097 43.4513 14.0097 44.0034V60H22.0081V41.004H29.0066V58.0005H25.0074V60H35.0053V58.0005H31.0062V41.004H38.0047V60H46.003V44.0034C46.003 43.4513 46.4506 43.0036 47.0028 43.0036C47.0028 43.0036 53.6732 42.9704 54.0013 42.9236V60H56.0009V42.3187C58.4403 41.1617 59.9961 38.7047 60 36.0051V21.0083C59.9947 17.467 57.3473 14.4867 53.8314 14.0639ZM44.0034 9.01079C44.0034 6.25015 46.2417 4.01185 49.0024 4.01185C51.763 4.01185 54.0013 6.25015 54.0013 9.01079C54.0013 11.7714 51.763 14.0097 49.0024 14.0097C46.2427 14.0063 44.0068 11.7705 44.0034 9.01079ZM32.1377 14.0097L30.0064 17.2093L27.875 14.0097H32.1377ZM25.0074 7.01122C25.0074 4.25057 27.2457 2.01227 30.0064 2.01227C32.767 2.01227 35.0053 4.25057 35.0053 7.01122C35.0053 9.77186 32.767 12.0102 30.0064 12.0102C27.2467 12.0067 25.0108 9.77089 25.0074 7.01122ZM21.0083 19.0087C21.0166 16.4492 22.9605 14.3114 25.5073 14.0605L30.0064 20.8081L34.5054 14.0576C37.0537 14.3085 38.9976 16.4482 39.0045 19.0087V27.007H35.0053V33.0057H25.0074V27.007H21.0083V19.0087ZM6.01143 9.01079C6.01143 6.25015 8.24973 4.01185 11.0104 4.01185C13.771 4.01185 16.0093 6.25015 16.0093 9.01079C16.0093 11.7714 13.771 14.0097 11.0104 14.0097C8.2507 14.0063 6.01485 11.7705 6.01143 9.01079ZM20.0085 58.0005H16.0093V44.0034C16.0093 42.347 14.6663 41.004 13.01 41.004H7.01122C4.25155 41.0006 2.01569 38.7648 2.01227 36.0051V21.0083C2.01569 18.2486 4.25155 16.0127 7.01122 16.0093H11.0104C12.6668 16.0093 14.0097 17.3523 14.0097 19.0087V29.0066H23.0078V33.0057H11.0104C10.4582 33.0057 10.0106 32.5581 10.0106 32.0059V20.0085H8.01101V32.0059C8.01101 33.6623 9.35398 35.0053 11.0104 35.0053H15.0095C17.7692 35.0087 20.0051 37.2446 20.0085 40.0042V58.0005ZM21.928 39.0045C21.7093 37.4843 20.9956 36.0788 19.8977 35.0053H40.1151C39.0172 36.0788 38.3034 37.4843 38.0847 39.0045H21.928ZM58.0005 36.0051C57.997 38.7648 55.7612 41.0006 53.0015 41.004H47.0028C45.3464 41.004 44.0034 42.347 44.0034 44.0034V58.0005H40.0043V40.0042C40.0077 37.2446 42.2435 35.0087 45.0032 35.0053H49.0024C50.6587 35.0053 52.0017 33.6623 52.0017 32.0059V20.0085H50.0021V32.0059C50.0021 32.5581 49.5545 33.0057 49.0024 33.0057H37.0049V29.0066H46.003V19.0087C46.003 17.3523 47.346 16.0093 49.0024 16.0093H53.0015C55.7612 16.0127 57.997 18.2486 58.0005 21.0083V36.0051Z" fill="#006771"/>
</g>
<defs>
<clipPath id="clip0">
<rect width="60" height="60" fill="white"/>
</clipPath>
</defs>
</svg>
