<svg width="61" height="61" viewBox="0 0 61 61" fill="none" xmlns="http://www.w3.org/2000/svg">
<path d="M9.53125 54.3281H7.625C7.37222 54.3281 7.12978 54.4285 6.95104 54.6073C6.77229 54.786 6.67188 55.0285 6.67188 55.2812C6.67188 55.534 6.77229 55.7765 6.95104 55.9552C7.12978 56.134 7.37222 56.2344 7.625 56.2344H9.53125C9.78403 56.2344 10.0265 56.134 10.2052 55.9552C10.384 55.7765 10.4844 55.534 10.4844 55.2812C10.4844 55.0285 10.384 54.786 10.2052 54.6073C10.0265 54.4285 9.78403 54.3281 9.53125 54.3281Z" fill="#006771"/>
<path d="M9.53125 51.4688H7.625C7.37222 51.4688 7.12978 51.5692 6.95104 51.7479C6.77229 51.9267 6.67188 52.1691 6.67188 52.4219C6.67188 52.6747 6.77229 52.9171 6.95104 53.0958C7.12978 53.2746 7.37222 53.375 7.625 53.375H9.53125C9.78403 53.375 10.0265 53.2746 10.2052 53.0958C10.384 52.9171 10.4844 52.6747 10.4844 52.4219C10.4844 52.1691 10.384 51.9267 10.2052 51.7479C10.0265 51.5692 9.78403 51.4688 9.53125 51.4688Z" fill="#006771"/>
<path d="M26.6875 54.3281H24.7812C24.5285 54.3281 24.286 54.4285 24.1073 54.6073C23.9285 54.786 23.8281 55.0285 23.8281 55.2812C23.8281 55.534 23.9285 55.7765 24.1073 55.9552C24.286 56.134 24.5285 56.2344 24.7812 56.2344H26.6875C26.9403 56.2344 27.1827 56.134 27.3615 55.9552C27.5402 55.7765 27.6406 55.534 27.6406 55.2812C27.6406 55.0285 27.5402 54.786 27.3615 54.6073C27.1827 54.4285 26.9403 54.3281 26.6875 54.3281Z" fill="#006771"/>
<path d="M26.6875 51.4688H24.7812C24.5285 51.4688 24.286 51.5692 24.1073 51.7479C23.9285 51.9267 23.8281 52.1691 23.8281 52.4219C23.8281 52.6747 23.9285 52.9171 24.1073 53.0958C24.286 53.2746 24.5285 53.375 24.7812 53.375H26.6875C26.9403 53.375 27.1827 53.2746 27.3615 53.0958C27.5402 52.9171 27.6406 52.6747 27.6406 52.4219C27.6406 52.1691 27.5402 51.9267 27.3615 51.7479C27.1827 51.5692 26.9403 51.4688 26.6875 51.4688Z" fill="#006771"/>
<path d="M43.8438 54.3281H41.9375C41.6847 54.3281 41.4423 54.4285 41.2635 54.6073C41.0848 54.786 40.9844 55.0285 40.9844 55.2812C40.9844 55.534 41.0848 55.7765 41.2635 55.9552C41.4423 56.134 41.6847 56.2344 41.9375 56.2344H43.8438C44.0965 56.2344 44.339 56.134 44.5177 55.9552C44.6965 55.7765 44.7969 55.534 44.7969 55.2812C44.7969 55.0285 44.6965 54.786 44.5177 54.6073C44.339 54.4285 44.0965 54.3281 43.8438 54.3281Z" fill="#006771"/>
<path d="M43.8438 51.4688H41.9375C41.6847 51.4688 41.4423 51.5692 41.2635 51.7479C41.0848 51.9267 40.9844 52.1691 40.9844 52.4219C40.9844 52.6747 41.0848 52.9171 41.2635 53.0958C41.4423 53.2746 41.6847 53.375 41.9375 53.375H43.8438C44.0965 53.375 44.339 53.2746 44.5177 53.0958C44.6965 52.9171 44.7969 52.6747 44.7969 52.4219C44.7969 52.1691 44.6965 51.9267 44.5177 51.7479C44.339 51.5692 44.0965 51.4688 43.8438 51.4688Z" fill="#006771"/>
<path d="M56.2344 38.125H48.6094V20.0156C48.6094 19.7628 48.509 19.5204 48.3302 19.3417C48.1515 19.1629 47.909 19.0625 47.6562 19.0625H40.0312V2.85938C40.0312 2.60659 39.9308 2.36416 39.7521 2.18541C39.5733 2.00667 39.3309 1.90625 39.0781 1.90625H21.9219C21.6691 1.90625 21.4267 2.00667 21.2479 2.18541C21.0692 2.36416 20.9688 2.60659 20.9688 2.85938V19.0625H13.3438C13.091 19.0625 12.8485 19.1629 12.6698 19.3417C12.491 19.5204 12.3906 19.7628 12.3906 20.0156V38.125H4.76562C4.51284 38.125 4.27041 38.2254 4.09166 38.4042C3.91292 38.5829 3.8125 38.8253 3.8125 39.0781V58.1406C3.8125 58.3934 3.91292 58.6358 4.09166 58.8146C4.27041 58.9933 4.51284 59.0938 4.76562 59.0938H56.2344C56.4872 59.0938 56.7296 58.9933 56.9083 58.8146C57.0871 58.6358 57.1875 58.3934 57.1875 58.1406V39.0781C57.1875 38.8253 57.0871 38.5829 56.9083 38.4042C56.7296 38.2254 56.4872 38.125 56.2344 38.125ZM46.7031 40.0312H48.6094V43.8438H46.7031V40.0312ZM46.7031 38.125H31.4531V20.9688H36.2188V25.7344C36.2188 25.9872 36.3192 26.2296 36.4979 26.4083C36.6767 26.5871 36.9191 26.6875 37.1719 26.6875H40.9844C41.2372 26.6875 41.4796 26.5871 41.6583 26.4083C41.8371 26.2296 41.9375 25.9872 41.9375 25.7344V20.9688H46.7031V38.125ZM29.5469 40.0312H31.4531V43.8438H29.5469V40.0312ZM40.0312 20.9688V24.7812H38.125V20.9688H40.0312ZM31.4531 3.8125V5.71875H29.5469V3.8125H31.4531ZM22.875 3.8125H27.6406V6.67188C27.6406 6.92466 27.741 7.16709 27.9198 7.34584C28.0985 7.52458 28.341 7.625 28.5938 7.625H32.4062C32.659 7.625 32.9015 7.52458 33.0802 7.34584C33.259 7.16709 33.3594 6.92466 33.3594 6.67188V3.8125H38.125V19.0625H22.875V3.8125ZM22.875 20.9688V24.7812H20.9688V20.9688H22.875ZM14.2969 20.9688H19.0625V25.7344C19.0625 25.9872 19.1629 26.2296 19.3417 26.4083C19.5204 26.5871 19.7628 26.6875 20.0156 26.6875H23.8281C24.0809 26.6875 24.3233 26.5871 24.5021 26.4083C24.6808 26.2296 24.7812 25.9872 24.7812 25.7344V20.9688H29.5469V38.125H14.2969V20.9688ZM14.2969 40.0312V43.8438H12.3906V40.0312H14.2969ZM5.71875 40.0312H10.4844V44.7969C10.4844 45.0497 10.5848 45.2921 10.7635 45.4708C10.9423 45.6496 11.1847 45.75 11.4375 45.75H15.25C15.5028 45.75 15.7452 45.6496 15.924 45.4708C16.1027 45.2921 16.2031 45.0497 16.2031 44.7969V40.0312H20.9688V57.1875H5.71875V40.0312ZM22.875 40.0312H27.6406V44.7969C27.6406 45.0497 27.741 45.2921 27.9198 45.4708C28.0985 45.6496 28.341 45.75 28.5938 45.75H32.4062C32.659 45.75 32.9015 45.6496 33.0802 45.4708C33.259 45.2921 33.3594 45.0497 33.3594 44.7969V40.0312H38.125V57.1875H22.875V40.0312ZM55.2812 57.1875H40.0312V40.0312H44.7969V44.7969C44.7969 45.0497 44.8973 45.2921 45.076 45.4708C45.2548 45.6496 45.4972 45.75 45.75 45.75H49.5625C49.8153 45.75 50.0577 45.6496 50.2365 45.4708C50.4152 45.2921 50.5156 45.0497 50.5156 44.7969V40.0312H55.2812V57.1875Z" fill="#006771"/>
<path d="M16.2031 37.1719H18.1094C18.3622 37.1719 18.6046 37.0715 18.7833 36.8927C18.9621 36.714 19.0625 36.4715 19.0625 36.2188C19.0625 35.966 18.9621 35.7235 18.7833 35.5448C18.6046 35.366 18.3622 35.2656 18.1094 35.2656H16.2031C15.9503 35.2656 15.7079 35.366 15.5292 35.5448C15.3504 35.7235 15.25 35.966 15.25 36.2188C15.25 36.4715 15.3504 36.714 15.5292 36.8927C15.7079 37.0715 15.9503 37.1719 16.2031 37.1719Z" fill="#006771"/>
<path d="M16.2031 34.3125H18.1094C18.3622 34.3125 18.6046 34.2121 18.7833 34.0333C18.9621 33.8546 19.0625 33.6122 19.0625 33.3594C19.0625 33.1066 18.9621 32.8642 18.7833 32.6854C18.6046 32.5067 18.3622 32.4062 18.1094 32.4062H16.2031C15.9503 32.4062 15.7079 32.5067 15.5292 32.6854C15.3504 32.8642 15.25 33.1066 15.25 33.3594C15.25 33.6122 15.3504 33.8546 15.5292 34.0333C15.7079 34.2121 15.9503 34.3125 16.2031 34.3125Z" fill="#006771"/>
<path d="M35.2656 35.2656H33.3594C33.1066 35.2656 32.8642 35.366 32.6854 35.5448C32.5067 35.7235 32.4062 35.966 32.4062 36.2188C32.4062 36.4715 32.5067 36.714 32.6854 36.8927C32.8642 37.0715 33.1066 37.1719 33.3594 37.1719H35.2656C35.5184 37.1719 35.7608 37.0715 35.9396 36.8927C36.1183 36.714 36.2188 36.4715 36.2188 36.2188C36.2188 35.966 36.1183 35.7235 35.9396 35.5448C35.7608 35.366 35.5184 35.2656 35.2656 35.2656Z" fill="#006771"/>
<path d="M35.2656 32.4062H33.3594C33.1066 32.4062 32.8642 32.5067 32.6854 32.6854C32.5067 32.8642 32.4062 33.1066 32.4062 33.3594C32.4062 33.6122 32.5067 33.8546 32.6854 34.0333C32.8642 34.2121 33.1066 34.3125 33.3594 34.3125H35.2656C35.5184 34.3125 35.7608 34.2121 35.9396 34.0333C36.1183 33.8546 36.2188 33.6122 36.2188 33.3594C36.2188 33.1066 36.1183 32.8642 35.9396 32.6854C35.7608 32.5067 35.5184 32.4062 35.2656 32.4062Z" fill="#006771"/>
<path d="M24.7812 15.25H26.6875C26.9403 15.25 27.1827 15.1496 27.3615 14.9708C27.5402 14.7921 27.6406 14.5497 27.6406 14.2969C27.6406 14.0441 27.5402 13.8017 27.3615 13.6229C27.1827 13.4442 26.9403 13.3438 26.6875 13.3438H24.7812C24.5285 13.3438 24.286 13.4442 24.1073 13.6229C23.9285 13.8017 23.8281 14.0441 23.8281 14.2969C23.8281 14.5497 23.9285 14.7921 24.1073 14.9708C24.286 15.1496 24.5285 15.25 24.7812 15.25Z" fill="#006771"/>
<path d="M24.7812 18.1094H26.6875C26.9403 18.1094 27.1827 18.009 27.3615 17.8302C27.5402 17.6515 27.6406 17.409 27.6406 17.1562C27.6406 16.9035 27.5402 16.661 27.3615 16.4823C27.1827 16.3035 26.9403 16.2031 26.6875 16.2031H24.7812C24.5285 16.2031 24.286 16.3035 24.1073 16.4823C23.9285 16.661 23.8281 16.9035 23.8281 17.1562C23.8281 17.409 23.9285 17.6515 24.1073 17.8302C24.286 18.009 24.5285 18.1094 24.7812 18.1094Z" fill="#006771"/>
</svg>
